%TF.GenerationSoftware,KiCad,Pcbnew,10.0.1*%
%TF.CreationDate,2026-06-18T23:37:02-04:00*%
%TF.ProjectId,business_card_v2,62757369-6e65-4737-935f-636172645f76,rev?*%
%TF.SameCoordinates,Original*%
%TF.FileFunction,Profile,NP*%
%FSLAX46Y46*%
G04 Gerber Fmt 4.6, Leading zero omitted, Abs format (unit mm)*
G04 Created by KiCad (PCBNEW 10.0.1) date 2026-06-18 23:37:02*
%MOMM*%
%LPD*%
G01*
G04 APERTURE LIST*
%TA.AperFunction,Profile*%
%ADD10C,0.050000*%
%TD*%
%TA.AperFunction,Profile*%
%ADD11C,0.100000*%
%TD*%
G04 APERTURE END LIST*
D10*
X58883439Y-78729240D02*
G75*
G02*
X61883439Y-75729239I3145601J-145600D01*
G01*
X58883439Y-126709240D02*
X58883439Y-78729240D01*
X61883439Y-75729240D02*
X141481267Y-75729240D01*
X61883439Y-129709240D02*
G75*
G02*
X58883360Y-126709240I-139J2999940D01*
G01*
X141475952Y-129709240D02*
X61883439Y-129709240D01*
X141481267Y-75729240D02*
G75*
G02*
X144481259Y-78731411I-67J-3000060D01*
G01*
X144458439Y-92679240D02*
X144475943Y-126701762D01*
X144475943Y-126701762D02*
G75*
G02*
X141475952Y-129709252I-2999943J-7538D01*
G01*
X144481267Y-78731411D02*
X144458439Y-83279240D01*
%TO.C,J1*%
D11*
X138258439Y-84042230D02*
X138258439Y-84369240D01*
X138258439Y-91916250D02*
X138258439Y-91589240D01*
X138959438Y-83779240D02*
X143458439Y-83779240D01*
X138959438Y-92179240D02*
X143458439Y-92179240D01*
X139958441Y-84634240D02*
X138958439Y-84634240D01*
X139958441Y-91324240D02*
X138958439Y-91324240D01*
X141166889Y-91075240D02*
X140249729Y-91075240D01*
X141167149Y-84883240D02*
X140250039Y-84883240D01*
X141958439Y-84634240D02*
X141458437Y-84634240D01*
X141958439Y-84634240D02*
X142708439Y-84934240D01*
X141958439Y-91324240D02*
X141458401Y-91324240D01*
X141958439Y-91324240D02*
X142708439Y-91024240D01*
X142708439Y-84934240D02*
X142708439Y-91024240D01*
X143458439Y-83779240D02*
X144458439Y-83279240D01*
X143458439Y-92179240D02*
X144458439Y-92679240D01*
X138257440Y-91587230D02*
G75*
G02*
X138958438Y-91324240I301108J263147D01*
G01*
X138258439Y-84042230D02*
G75*
G02*
X138959437Y-83779240I301108J263147D01*
G01*
X138958439Y-84634240D02*
G75*
G02*
X138257440Y-84371250I-399891J-157D01*
G01*
X138959438Y-92179240D02*
G75*
G02*
X138258439Y-91916250I-399891J-157D01*
G01*
X139958441Y-91324240D02*
G75*
G02*
X140249729Y-91075241I291288J-45880D01*
G01*
X140250039Y-84883240D02*
G75*
G02*
X139958478Y-84634240I-50J295140D01*
G01*
X141166889Y-91075240D02*
G75*
G02*
X141458400Y-91324240I0J-295140D01*
G01*
X141458437Y-84634240D02*
G75*
G02*
X141167149Y-84883239I-291288J45880D01*
G01*
%TD*%
M02*
