M48
; DRILL file KiCad 10.0.1 date 2026-06-18T23:37:10
; FORMAT={-:-/ absolute / metric / decimal}
; #@! TF.CreationDate,2026-06-18T23:37:10-04:00
; #@! TF.GenerationSoftware,Kicad,Pcbnew,10.0.1
; #@! TF.FileFunction,Plated,1,2,PTH
FMAT,2
METRIC
; #@! TA.AperFunction,Plated,PTH,ViaDrill
T1C0.300
%
G90
G05
T1
X61.0Y-96.0
X61.0Y-108.0
X61.0Y-117.0
X61.51Y-88.46
X61.51Y-91.635
X63.06Y-87.25
X63.25Y-95.0
X64.0Y-103.25
X66.5Y-90.0
X66.5Y-92.0
X69.4Y-109.0
X69.5Y-115.5
X72.996Y-117.04
X73.25Y-104.75
X73.75Y-102.25
X74.546Y-113.865
X74.546Y-117.04
X75.0Y-90.0
X75.0Y-98.5
X77.5Y-105.0
X77.5Y-115.5
X78.026Y-108.839
X78.26Y-88.46
X78.26Y-91.635
X79.814Y-87.186
X80.0Y-95.0
X80.75Y-103.25
X83.25Y-92.0
X83.257Y-90.025
X86.138Y-115.481
X89.69Y-117.04
X90.0Y-104.75
X90.5Y-102.25
X91.24Y-113.865
X91.24Y-117.04
X91.5Y-90.0
X91.5Y-98.5
X94.5Y-105.0
X94.5Y-115.5
X94.678Y-108.877
X95.01Y-88.46
X95.01Y-91.635
X96.56Y-87.25
X96.75Y-95.0
X97.5Y-103.25
X100.0Y-90.0
X100.0Y-92.0
X103.0Y-115.5
X106.44Y-116.98
X106.75Y-104.75
X107.25Y-102.25
X107.99Y-113.865
X107.99Y-116.98
X108.5Y-90.0
X108.5Y-98.5
X111.0Y-115.5
X111.402Y-108.902
X111.5Y-105.0
X111.76Y-88.46
X111.76Y-91.635
X113.31Y-87.244
X113.5Y-95.0
X114.25Y-103.25
X116.65Y-92.0
X116.745Y-90.025
X117.825Y-101.0
X117.825Y-104.5
X119.728Y-115.476
X123.294Y-117.04
X123.5Y-104.75
X123.998Y-100.319
X124.0Y-102.25
X124.248Y-99.559
X124.5Y-98.8
X124.5Y-106.5
X124.5Y-107.45
X124.5Y-108.25
X124.75Y-98.0
X124.844Y-113.865
X124.844Y-117.04
X127.0Y-89.725
X127.5Y-99.25
X127.5Y-127.5
X128.0Y-77.5
X128.5Y-89.725
X129.5Y-110.0
X129.975Y-98.0
X131.174Y-101.461
X131.525Y-98.0
X132.0Y-96.3
X132.5Y-109.0
X133.0Y-86.35
X133.0Y-92.65
X133.5Y-96.3
X133.775Y-103.0
X134.025Y-107.75
X134.35Y-81.65
X134.425Y-102.0
X134.5Y-113.0
X135.3Y-92.65
X135.5Y-90.25
X136.0Y-110.0
X136.25Y-101.75
X136.5Y-89.5
X137.75Y-97.85
X138.297Y-88.354
X139.35Y-88.999
X139.375Y-89.875
X140.0Y-96.0
X140.65Y-77.85
X140.65Y-81.65
X141.5Y-109.0
X141.5Y-113.0
X142.5Y-94.5
X142.5Y-104.0
X142.5Y-127.5
M30
