%TF.GenerationSoftware,KiCad,Pcbnew,10.0.1*%
%TF.CreationDate,2026-06-18T23:37:02-04:00*%
%TF.ProjectId,business_card_v2,62757369-6e65-4737-935f-636172645f76,rev?*%
%TF.SameCoordinates,Original*%
%TF.FileFunction,Copper,L1,Top*%
%TF.FilePolarity,Positive*%
%FSLAX46Y46*%
G04 Gerber Fmt 4.6, Leading zero omitted, Abs format (unit mm)*
G04 Created by KiCad (PCBNEW 10.0.1) date 2026-06-18 23:37:02*
%MOMM*%
%LPD*%
G01*
G04 APERTURE LIST*
%TA.AperFunction,SMDPad,CuDef*%
%ADD10R,2.400000X0.250000*%
%TD*%
%TA.AperFunction,SMDPad,CuDef*%
%ADD11R,2.050000X0.250000*%
%TD*%
%TA.AperFunction,SMDPad,CuDef*%
%ADD12R,1.850000X0.250000*%
%TD*%
%TA.AperFunction,ViaPad*%
%ADD13C,0.600000*%
%TD*%
%TA.AperFunction,Conductor*%
%ADD14C,0.200000*%
%TD*%
%TA.AperFunction,Conductor*%
%ADD15C,0.300000*%
%TD*%
%TA.AperFunction,Conductor*%
%ADD16C,0.500000*%
%TD*%
G04 APERTURE END LIST*
D10*
%TO.P,J1,A1,GND_A1*%
%TO.N,GND*%
X141058439Y-90729240D03*
D11*
%TO.P,J1,A4,VBUS_A4*%
%TO.N,+5V*%
X140883439Y-89229240D03*
D12*
%TO.P,J1,A5,CC1_A5*%
%TO.N,/CC1*%
X140783439Y-88729240D03*
%TO.P,J1,A6,DP1_A6*%
%TO.N,/D+*%
X140783439Y-88229240D03*
%TO.P,J1,A7,DN1_A7*%
%TO.N,/D-*%
X140783439Y-87729240D03*
D11*
%TO.P,J1,A9,VBUS_A9*%
%TO.N,+5V*%
X140883439Y-86729240D03*
D10*
%TO.P,J1,A12,GND_A12*%
%TO.N,GND*%
X141058439Y-85229240D03*
%TD*%
D13*
%TO.N,GND*%
X61510000Y-91635000D03*
X140650000Y-81650000D03*
X142500000Y-94500000D03*
X108500000Y-98500000D03*
X61000000Y-96000000D03*
X124843798Y-113865000D03*
X129975000Y-98000000D03*
X127000000Y-89725000D03*
X74545873Y-117040000D03*
X100000000Y-90000000D03*
X127500000Y-127500000D03*
X132000000Y-96300000D03*
X78260000Y-88460000D03*
X69400000Y-109000000D03*
X91500000Y-98500000D03*
X107990000Y-116980000D03*
X86138025Y-115481116D03*
X103000000Y-115500000D03*
X116745077Y-90025000D03*
X111000000Y-115500000D03*
X129500000Y-110000000D03*
X111760000Y-91635000D03*
X74545873Y-113865000D03*
X95010000Y-91635000D03*
X61510000Y-88460000D03*
X94500000Y-105000000D03*
X124843798Y-117040000D03*
X119728194Y-115476338D03*
X134350000Y-81650000D03*
X78260000Y-91635000D03*
X111500000Y-105000000D03*
X83257318Y-90025000D03*
X107990000Y-113865000D03*
X128000000Y-77500000D03*
X66500000Y-90000000D03*
X95010000Y-88460000D03*
X75000000Y-90000000D03*
X61000000Y-108000000D03*
X134025000Y-107750000D03*
X135300000Y-92650000D03*
X142500000Y-127500000D03*
X94500000Y-115500000D03*
X142500000Y-104000000D03*
X134500000Y-113000000D03*
X91500000Y-90000000D03*
X77500000Y-115500000D03*
X133500000Y-96300000D03*
X108500000Y-90000000D03*
X111760000Y-88460000D03*
X75000000Y-98500000D03*
X69500000Y-115500000D03*
X131173517Y-101460564D03*
X91240000Y-113865000D03*
X137750000Y-97850000D03*
X61000000Y-117000000D03*
X128500000Y-89725000D03*
X91240000Y-117040000D03*
X77500000Y-105000000D03*
%TO.N,+5V*%
X135500000Y-90250000D03*
X139374849Y-89875151D03*
%TO.N,/CC1*%
X139350021Y-88998509D03*
%TO.N,/D+*%
X136500000Y-89500000D03*
%TO.N,/D-*%
X138297232Y-88354240D03*
%TO.N,/BUS_MISO*%
X97500000Y-103250000D03*
X96750000Y-95000000D03*
X80750000Y-103250000D03*
X114250000Y-103250000D03*
X80000000Y-95000000D03*
X113500000Y-95000000D03*
X64000000Y-103250000D03*
X63250000Y-95000000D03*
%TO.N,/BUS_MOSI*%
X73250000Y-104750000D03*
X123500000Y-104750000D03*
X107250000Y-102250000D03*
X106750000Y-104750000D03*
X124000000Y-102250000D03*
X73750000Y-102250000D03*
X90500000Y-102250000D03*
X90000000Y-104750000D03*
%TO.N,/NRST_S1*%
X116650000Y-92000000D03*
X124750000Y-98000000D03*
%TO.N,+3.3V*%
X89690000Y-117040000D03*
X123293798Y-117040000D03*
X117825000Y-101000000D03*
X106440000Y-116980000D03*
X72995873Y-117040000D03*
X131525000Y-98000000D03*
X117825000Y-104500000D03*
X63060000Y-87250000D03*
X133000000Y-86350000D03*
X96560000Y-87250000D03*
X113309878Y-87244012D03*
X79814376Y-87185624D03*
X133000000Y-92650000D03*
%TO.N,/NRST_MASTER*%
X140000000Y-96000000D03*
X140650000Y-77850000D03*
X132500000Y-109000000D03*
X136000000Y-110000000D03*
%TO.N,/NRST_S2*%
X100000000Y-92000000D03*
X124500000Y-98800003D03*
%TO.N,/NRST_S4*%
X66500000Y-92000000D03*
X123997888Y-100319179D03*
%TO.N,/NRST_S3*%
X124248044Y-99559294D03*
X83250000Y-92000000D03*
%TO.N,/NRST_S8*%
X78026308Y-108839330D03*
X124500000Y-106500000D03*
%TO.N,Net-(M1-PA5)*%
X136250000Y-101750000D03*
X127500000Y-99250000D03*
%TO.N,/NRST_S6*%
X111402500Y-108902500D03*
X124500000Y-108250000D03*
%TO.N,/NRST_S7*%
X124500000Y-107449997D03*
X94678121Y-108876879D03*
%TO.N,/SWDIO_M*%
X141500000Y-113000000D03*
X133775000Y-103000000D03*
%TO.N,/SWCLK_M*%
X141500000Y-109000000D03*
X134425000Y-102000000D03*
%TD*%
%TO.N,GND*%
D14*
X141058439Y-85229240D02*
X139270760Y-85229240D01*
X137500000Y-83500000D02*
X139350000Y-81650000D01*
X139000000Y-90500000D02*
X138000000Y-90500000D01*
X139262744Y-90762744D02*
X139000000Y-90500000D01*
X138000000Y-90500000D02*
X137500000Y-91000000D01*
X139270760Y-85229240D02*
X139000000Y-85500000D01*
X139500000Y-94500000D02*
X142500000Y-94500000D01*
X137500000Y-85000000D02*
X137500000Y-83500000D01*
X137500000Y-92500000D02*
X139500000Y-94500000D01*
X141058439Y-90729240D02*
X141024935Y-90762744D01*
X141024935Y-90762744D02*
X139262744Y-90762744D01*
X137500000Y-91000000D02*
X137500000Y-92500000D01*
X139000000Y-85500000D02*
X138000000Y-85500000D01*
X139350000Y-81650000D02*
X140650000Y-81650000D01*
X138000000Y-85500000D02*
X137500000Y-85000000D01*
%TO.N,+5V*%
D15*
X137771511Y-89415342D02*
X138662476Y-89415342D01*
D14*
X139374849Y-89875151D02*
X140020760Y-89229240D01*
D15*
X135500000Y-90250000D02*
X136936853Y-90250000D01*
X136936853Y-90250000D02*
X137771511Y-89415342D01*
X139122285Y-89875151D02*
X139374849Y-89875151D01*
D14*
X135500000Y-88500000D02*
X137270760Y-86729240D01*
X140020760Y-89229240D02*
X140883439Y-89229240D01*
X135500000Y-90250000D02*
X135500000Y-88500000D01*
D15*
X138662476Y-89415342D02*
X139122285Y-89875151D01*
D14*
X137270760Y-86729240D02*
X140883439Y-86729240D01*
X140883439Y-89229240D02*
X140862679Y-89250000D01*
%TO.N,/CC1*%
X139350021Y-88998509D02*
X139619290Y-88729240D01*
X139619290Y-88729240D02*
X140783439Y-88729240D01*
%TO.N,/D+*%
X136500000Y-89500000D02*
X136500000Y-89250000D01*
X136500000Y-89250000D02*
X136784658Y-88965342D01*
X138534658Y-88965342D02*
X139270760Y-88229240D01*
X139270760Y-88229240D02*
X140783439Y-88229240D01*
X136784658Y-88965342D02*
X138534658Y-88965342D01*
%TO.N,/D-*%
X138297232Y-88303994D02*
X138871986Y-87729240D01*
X138871986Y-87729240D02*
X140783439Y-87729240D01*
X138297232Y-88354240D02*
X138297232Y-88303994D01*
%TO.N,/BUS_MISO*%
X96750000Y-102500000D02*
X97500000Y-103250000D01*
X96750000Y-95000000D02*
X96750000Y-102500000D01*
X63250000Y-95000000D02*
X63250000Y-102500000D01*
X113500000Y-102500000D02*
X114250000Y-103250000D01*
X80000000Y-95000000D02*
X80000000Y-102500000D01*
X63250000Y-102500000D02*
X64000000Y-103250000D01*
X113500000Y-95000000D02*
X113500000Y-102500000D01*
X80000000Y-102500000D02*
X80750000Y-103250000D01*
%TO.N,/BUS_MOSI*%
X90000000Y-102750000D02*
X90500000Y-102250000D01*
X123500000Y-104750000D02*
X123500000Y-102750000D01*
X123500000Y-102750000D02*
X124000000Y-102250000D01*
X73250000Y-102750000D02*
X73750000Y-102250000D01*
X106750000Y-102750000D02*
X107250000Y-102250000D01*
X90000000Y-104750000D02*
X90000000Y-102750000D01*
X73250000Y-104750000D02*
X73250000Y-102750000D01*
X106750000Y-104750000D02*
X106750000Y-102750000D01*
%TO.N,/NRST_S1*%
X124750000Y-98000000D02*
X122650000Y-98000000D01*
X122650000Y-98000000D02*
X116650000Y-92000000D01*
%TO.N,+3.3V*%
D16*
X100000000Y-111500000D02*
X74500000Y-111500000D01*
X126750000Y-101000000D02*
X126750000Y-108750000D01*
X91000000Y-111500000D02*
X89690000Y-112810000D01*
X129600000Y-92650000D02*
X126750000Y-95500000D01*
X123293798Y-112206202D02*
X123293798Y-117040000D01*
X124000000Y-111500000D02*
X113000000Y-111500000D01*
X74500000Y-111500000D02*
X72995873Y-113004127D01*
X106440000Y-112839701D02*
X106440000Y-116980000D01*
X72995873Y-113004127D02*
X72995873Y-117040000D01*
X63630546Y-86350000D02*
X63060000Y-86920546D01*
X133000000Y-92650000D02*
X129600000Y-92650000D01*
X114203890Y-86350000D02*
X97750000Y-86350000D01*
X113000000Y-111500000D02*
X100000000Y-111500000D01*
X113309878Y-87244012D02*
X114203890Y-86350000D01*
X113000000Y-111500000D02*
X107779701Y-111500000D01*
X100000000Y-111500000D02*
X91000000Y-111500000D01*
X97750000Y-86350000D02*
X80650000Y-86350000D01*
X96560000Y-87250000D02*
X97460000Y-86350000D01*
D14*
X117825000Y-101000000D02*
X126750000Y-101000000D01*
X97460000Y-86350000D02*
X97750000Y-86350000D01*
D16*
X80650000Y-86350000D02*
X63630546Y-86350000D01*
X107779701Y-111500000D02*
X106440000Y-112839701D01*
X63060000Y-86920546D02*
X63060000Y-87250000D01*
X133000000Y-92650000D02*
X133000000Y-86350000D01*
D14*
X128525000Y-101000000D02*
X126750000Y-101000000D01*
D16*
X126750000Y-108750000D02*
X124500000Y-111000000D01*
X133000000Y-86350000D02*
X114203890Y-86350000D01*
X79814376Y-87185624D02*
X80650000Y-86350000D01*
D14*
X131525000Y-98000000D02*
X128525000Y-101000000D01*
D16*
X124500000Y-111000000D02*
X123293798Y-112206202D01*
D14*
X117825000Y-101000000D02*
X117825000Y-104500000D01*
D16*
X89690000Y-112810000D02*
X89690000Y-117040000D01*
X124500000Y-111000000D02*
X124000000Y-111500000D01*
X126750000Y-95500000D02*
X126750000Y-101000000D01*
%TO.N,/NRST_MASTER*%
D14*
X134900000Y-90900000D02*
X134900000Y-83600000D01*
X140000000Y-96000000D02*
X134900000Y-90900000D01*
X133500000Y-110000000D02*
X136000000Y-110000000D01*
X132500000Y-109000000D02*
X133500000Y-110000000D01*
X134900000Y-83600000D02*
X140650000Y-77850000D01*
%TO.N,/NRST_S2*%
X122550003Y-98800003D02*
X116750000Y-93000000D01*
X116750000Y-93000000D02*
X101000000Y-93000000D01*
X101000000Y-93000000D02*
X100000000Y-92000000D01*
X124500000Y-98800003D02*
X122550003Y-98800003D01*
%TO.N,/NRST_S4*%
X123991472Y-100312763D02*
X122562763Y-100312763D01*
X116250000Y-94000000D02*
X68500000Y-94000000D01*
X123997888Y-100319179D02*
X123991472Y-100312763D01*
X68500000Y-94000000D02*
X66500000Y-92000000D01*
X122562763Y-100312763D02*
X116250000Y-94000000D01*
%TO.N,/NRST_S3*%
X122553399Y-99553399D02*
X116500000Y-93500000D01*
X116500000Y-93500000D02*
X84750000Y-93500000D01*
X124242149Y-99553399D02*
X122553399Y-99553399D01*
X84750000Y-93500000D02*
X83250000Y-92000000D01*
X124248044Y-99559294D02*
X124242149Y-99553399D01*
%TO.N,/NRST_S8*%
X78026308Y-108834564D02*
X80360872Y-106500000D01*
X78026308Y-108839330D02*
X78026308Y-108834564D01*
X80360872Y-106500000D02*
X124500000Y-106500000D01*
%TO.N,Net-(M1-PA5)*%
X136250000Y-99250000D02*
X134000000Y-97000000D01*
X134000000Y-97000000D02*
X128250000Y-97000000D01*
X136250000Y-101750000D02*
X136250000Y-99250000D01*
X127500000Y-97750000D02*
X127500000Y-99250000D01*
X128250000Y-97000000D02*
X127500000Y-97750000D01*
%TO.N,/NRST_S6*%
X111402500Y-108902500D02*
X112055000Y-108250000D01*
X112055000Y-108250000D02*
X124500000Y-108250000D01*
%TO.N,/NRST_S7*%
X94678121Y-108876879D02*
X96105003Y-107449997D01*
X96105003Y-107449997D02*
X124500000Y-107449997D01*
%TO.N,/SWDIO_M*%
X141500000Y-113000000D02*
X133775000Y-105275000D01*
X133775000Y-105275000D02*
X133775000Y-103000000D01*
%TO.N,/SWCLK_M*%
X134425000Y-104425000D02*
X134425000Y-102000000D01*
X139000000Y-109000000D02*
X134425000Y-104425000D01*
X141500000Y-109000000D02*
X139000000Y-109000000D01*
%TD*%
%TA.AperFunction,Conductor*%
%TO.N,GND*%
G36*
X130659063Y-97606554D02*
G01*
X130680512Y-97607854D01*
X130691920Y-97616202D01*
X130705484Y-97620185D01*
X130719554Y-97636422D01*
X130736898Y-97649114D01*
X130741982Y-97662306D01*
X130751239Y-97672989D01*
X130754296Y-97694255D01*
X130762026Y-97714309D01*
X130760589Y-97738017D01*
X130761183Y-97742147D01*
X130760100Y-97746083D01*
X130759891Y-97749539D01*
X130757513Y-97761068D01*
X130755263Y-97766503D01*
X130724500Y-97921158D01*
X130724500Y-97921196D01*
X130724191Y-97922695D01*
X130707966Y-97953191D01*
X130691977Y-97983759D01*
X130691585Y-97983981D01*
X130691375Y-97984378D01*
X130690426Y-97985337D01*
X128312584Y-100363181D01*
X128251261Y-100396666D01*
X128224903Y-100399500D01*
X127624500Y-100399500D01*
X127557461Y-100379815D01*
X127511706Y-100327011D01*
X127500500Y-100275500D01*
X127500500Y-100167847D01*
X127520185Y-100100808D01*
X127572989Y-100055053D01*
X127600309Y-100046230D01*
X127616291Y-100043050D01*
X127733497Y-100019737D01*
X127879179Y-99959394D01*
X128010289Y-99871789D01*
X128121789Y-99760289D01*
X128209394Y-99629179D01*
X128269737Y-99483497D01*
X128300500Y-99328842D01*
X128300500Y-99171158D01*
X128300500Y-99171155D01*
X128300499Y-99171153D01*
X128300457Y-99170943D01*
X128269737Y-99016503D01*
X128269735Y-99016498D01*
X128209397Y-98870827D01*
X128209390Y-98870814D01*
X128121398Y-98739125D01*
X128100520Y-98672447D01*
X128100500Y-98670234D01*
X128100500Y-98050097D01*
X128120185Y-97983058D01*
X128136819Y-97962416D01*
X128462416Y-97636819D01*
X128523739Y-97603334D01*
X128550097Y-97600500D01*
X130638445Y-97600500D01*
X130659063Y-97606554D01*
G37*
%TD.AperFunction*%
%TA.AperFunction,Conductor*%
G36*
X141484733Y-75929935D02*
G01*
X141533449Y-75932672D01*
X141787902Y-75946972D01*
X141801718Y-75948530D01*
X142097626Y-75998835D01*
X142111180Y-76001930D01*
X142399604Y-76085067D01*
X142412710Y-76089656D01*
X142690010Y-76204578D01*
X142702524Y-76210609D01*
X142965197Y-76355864D01*
X142976967Y-76363264D01*
X143033072Y-76403097D01*
X143221710Y-76537023D01*
X143232584Y-76545700D01*
X143456325Y-76745784D01*
X143466158Y-76755625D01*
X143666067Y-76979497D01*
X143674737Y-76990377D01*
X143781229Y-77140602D01*
X143843334Y-77228213D01*
X143848319Y-77235244D01*
X143855715Y-77247027D01*
X144000779Y-77509802D01*
X144006808Y-77522339D01*
X144121518Y-77799693D01*
X144126106Y-77812826D01*
X144209032Y-78101299D01*
X144212119Y-78114864D01*
X144262206Y-78410795D01*
X144263755Y-78424620D01*
X144280558Y-78727513D01*
X144280746Y-78735003D01*
X144258941Y-83078807D01*
X144238921Y-83145747D01*
X144190398Y-83189094D01*
X143958971Y-83304808D01*
X143437288Y-83565649D01*
X143381835Y-83578740D01*
X139207417Y-83578740D01*
X139140378Y-83559055D01*
X139097552Y-83512235D01*
X139057766Y-83436210D01*
X139057765Y-83436208D01*
X138961412Y-83327100D01*
X138882822Y-83272623D01*
X138841783Y-83244175D01*
X138841776Y-83244171D01*
X138705799Y-83192231D01*
X138705800Y-83192231D01*
X138593274Y-83178251D01*
X138561349Y-83174285D01*
X138561347Y-83174285D01*
X138416790Y-83191371D01*
X138280510Y-83242499D01*
X138280507Y-83242500D01*
X138160384Y-83324712D01*
X138160382Y-83324714D01*
X138063382Y-83433244D01*
X138063381Y-83433245D01*
X137995122Y-83561807D01*
X137995122Y-83561808D01*
X137959556Y-83702961D01*
X137958745Y-83848517D01*
X137958746Y-83848521D01*
X137992738Y-83990059D01*
X138044100Y-84089453D01*
X138047335Y-84102759D01*
X138052916Y-84111443D01*
X138057939Y-84146378D01*
X138057939Y-84265167D01*
X138044100Y-84322093D01*
X137991739Y-84423420D01*
X137957746Y-84564962D01*
X137958193Y-84645123D01*
X137958557Y-84710519D01*
X137971977Y-84763778D01*
X137994123Y-84851671D01*
X137994123Y-84851672D01*
X138062382Y-84980234D01*
X138062383Y-84980235D01*
X138159384Y-85088767D01*
X138279507Y-85170979D01*
X138415794Y-85222109D01*
X138435741Y-85224466D01*
X138500007Y-85251881D01*
X138539250Y-85309689D01*
X138545187Y-85348507D01*
X138540428Y-86005638D01*
X138520258Y-86072533D01*
X138467124Y-86117904D01*
X138416431Y-86128740D01*
X137357430Y-86128740D01*
X137357414Y-86128739D01*
X137349818Y-86128739D01*
X137191703Y-86128739D01*
X137084347Y-86157505D01*
X137038970Y-86169664D01*
X137038969Y-86169665D01*
X136988856Y-86198599D01*
X136988855Y-86198600D01*
X136945449Y-86223660D01*
X136902045Y-86248719D01*
X136902042Y-86248721D01*
X135712181Y-87438583D01*
X135650858Y-87472068D01*
X135581166Y-87467084D01*
X135525233Y-87425212D01*
X135500816Y-87359748D01*
X135500500Y-87350902D01*
X135500500Y-83900097D01*
X135520185Y-83833058D01*
X135536819Y-83812416D01*
X136270428Y-83078807D01*
X140664662Y-78684572D01*
X140725983Y-78651089D01*
X140728150Y-78650638D01*
X140786085Y-78639113D01*
X140883497Y-78619737D01*
X141029179Y-78559394D01*
X141160289Y-78471789D01*
X141271789Y-78360289D01*
X141359394Y-78229179D01*
X141419737Y-78083497D01*
X141450500Y-77928842D01*
X141450500Y-77771158D01*
X141450500Y-77771155D01*
X141450499Y-77771153D01*
X141419738Y-77616510D01*
X141419738Y-77616508D01*
X141419737Y-77616503D01*
X141389351Y-77543143D01*
X141359397Y-77470827D01*
X141359390Y-77470814D01*
X141271789Y-77339711D01*
X141271786Y-77339707D01*
X141160292Y-77228213D01*
X141160288Y-77228210D01*
X141029185Y-77140609D01*
X141029172Y-77140602D01*
X140883501Y-77080264D01*
X140883489Y-77080261D01*
X140728845Y-77049500D01*
X140728842Y-77049500D01*
X140571158Y-77049500D01*
X140571155Y-77049500D01*
X140416510Y-77080261D01*
X140416498Y-77080264D01*
X140270827Y-77140602D01*
X140270814Y-77140609D01*
X140139711Y-77228210D01*
X140139707Y-77228213D01*
X140028213Y-77339707D01*
X140028210Y-77339711D01*
X139940609Y-77470814D01*
X139940602Y-77470827D01*
X139880264Y-77616498D01*
X139880261Y-77616508D01*
X139849361Y-77771850D01*
X139816976Y-77833761D01*
X139815425Y-77835339D01*
X134419481Y-83231282D01*
X134419477Y-83231287D01*
X134377031Y-83304808D01*
X134340423Y-83368215D01*
X134299499Y-83520943D01*
X134299499Y-83520945D01*
X134299499Y-83689046D01*
X134299500Y-83689059D01*
X134299500Y-90813330D01*
X134299499Y-90813348D01*
X134299499Y-90979054D01*
X134299498Y-90979054D01*
X134333730Y-91106810D01*
X134340423Y-91131785D01*
X134343664Y-91137398D01*
X134366820Y-91177506D01*
X134419477Y-91268712D01*
X134419481Y-91268717D01*
X134538349Y-91387585D01*
X134538355Y-91387590D01*
X139165425Y-96014660D01*
X139198910Y-96075983D01*
X139199361Y-96078149D01*
X139230261Y-96233491D01*
X139230264Y-96233501D01*
X139290602Y-96379172D01*
X139290609Y-96379185D01*
X139378210Y-96510288D01*
X139378213Y-96510292D01*
X139489707Y-96621786D01*
X139489711Y-96621789D01*
X139620814Y-96709390D01*
X139620827Y-96709397D01*
X139766498Y-96769735D01*
X139766503Y-96769737D01*
X139921153Y-96800499D01*
X139921156Y-96800500D01*
X139921158Y-96800500D01*
X140078844Y-96800500D01*
X140078845Y-96800499D01*
X140233497Y-96769737D01*
X140379179Y-96709394D01*
X140510289Y-96621789D01*
X140621789Y-96510289D01*
X140709394Y-96379179D01*
X140769737Y-96233497D01*
X140800500Y-96078842D01*
X140800500Y-95921158D01*
X140800500Y-95921155D01*
X140800499Y-95921153D01*
X140788778Y-95862229D01*
X140769737Y-95766503D01*
X140769735Y-95766498D01*
X140709397Y-95620827D01*
X140709390Y-95620814D01*
X140621789Y-95489711D01*
X140621786Y-95489707D01*
X140510292Y-95378213D01*
X140510288Y-95378210D01*
X140379185Y-95290609D01*
X140379172Y-95290602D01*
X140233501Y-95230264D01*
X140233491Y-95230261D01*
X140078149Y-95199361D01*
X140016238Y-95166976D01*
X140014660Y-95165425D01*
X135961416Y-91112181D01*
X135927931Y-91050858D01*
X135932915Y-90981166D01*
X135974787Y-90925233D01*
X136040251Y-90900816D01*
X136049097Y-90900500D01*
X137000924Y-90900500D01*
X137085468Y-90883682D01*
X137126597Y-90875501D01*
X137244980Y-90826465D01*
X137351522Y-90755277D01*
X138004638Y-90102161D01*
X138031565Y-90087457D01*
X138057384Y-90070865D01*
X138063584Y-90069973D01*
X138065961Y-90068676D01*
X138092319Y-90065842D01*
X138341667Y-90065842D01*
X138408706Y-90085527D01*
X138429347Y-90102160D01*
X138473475Y-90146287D01*
X138506961Y-90207610D01*
X138509792Y-90234867D01*
X138507019Y-90617623D01*
X138486849Y-90684518D01*
X138433715Y-90729890D01*
X138422766Y-90733637D01*
X138422805Y-90733740D01*
X138279511Y-90787499D01*
X138279508Y-90787500D01*
X138159385Y-90869712D01*
X138159383Y-90869714D01*
X138062383Y-90978244D01*
X138062382Y-90978245D01*
X137994123Y-91106807D01*
X137994123Y-91106808D01*
X137958557Y-91247961D01*
X137957746Y-91393517D01*
X137991740Y-91535063D01*
X138044099Y-91636384D01*
X138047333Y-91649690D01*
X138052916Y-91658376D01*
X138057939Y-91693311D01*
X138057939Y-91812100D01*
X138044100Y-91869025D01*
X137992738Y-91968418D01*
X137958745Y-92109962D01*
X137959556Y-92255515D01*
X137959556Y-92255520D01*
X137995121Y-92396671D01*
X137995122Y-92396672D01*
X138063380Y-92525233D01*
X138063382Y-92525235D01*
X138160383Y-92633767D01*
X138280506Y-92715979D01*
X138416793Y-92767109D01*
X138561349Y-92784195D01*
X138705801Y-92766248D01*
X138841781Y-92714307D01*
X138961412Y-92631380D01*
X139057765Y-92522272D01*
X139097552Y-92446244D01*
X139146077Y-92395975D01*
X139207417Y-92379740D01*
X143381835Y-92379740D01*
X143437289Y-92392831D01*
X144189497Y-92768934D01*
X144240655Y-92816520D01*
X144258042Y-92879778D01*
X144275416Y-126649941D01*
X144275416Y-126649957D01*
X144275420Y-126662193D01*
X144275344Y-126662381D01*
X144275434Y-126698603D01*
X144275435Y-126699051D01*
X144275427Y-126699076D01*
X144275256Y-126705754D01*
X144258943Y-127009279D01*
X144257416Y-127023122D01*
X144207743Y-127319476D01*
X144204673Y-127333062D01*
X144122079Y-127621974D01*
X144117505Y-127635128D01*
X144003031Y-127912961D01*
X143997010Y-127925520D01*
X143852107Y-128188754D01*
X143844716Y-128200559D01*
X143671207Y-128445884D01*
X143662539Y-128456786D01*
X143462604Y-128681115D01*
X143452768Y-128690975D01*
X143228944Y-128891463D01*
X143218064Y-128900158D01*
X142973177Y-129074276D01*
X142961391Y-129081697D01*
X142698510Y-129227260D01*
X142685966Y-129233311D01*
X142408422Y-129348476D01*
X142395278Y-129353084D01*
X142106574Y-129436396D01*
X142092997Y-129439499D01*
X141796761Y-129489913D01*
X141782921Y-129491475D01*
X141479438Y-129508544D01*
X141472475Y-129508740D01*
X61937751Y-129508740D01*
X61923315Y-129508739D01*
X61923314Y-129508739D01*
X61907309Y-129508739D01*
X61886904Y-129508739D01*
X61886903Y-129508738D01*
X61879957Y-129508544D01*
X61576935Y-129491537D01*
X61563116Y-129489980D01*
X61267352Y-129439734D01*
X61253795Y-129436641D01*
X60965496Y-129353591D01*
X60952370Y-129348998D01*
X60675191Y-129234192D01*
X60662662Y-129228158D01*
X60661037Y-129227260D01*
X60400090Y-129083043D01*
X60388315Y-129075645D01*
X60143632Y-128902035D01*
X60132761Y-128893365D01*
X59909058Y-128693454D01*
X59899224Y-128683620D01*
X59699313Y-128459917D01*
X59690643Y-128449046D01*
X59517033Y-128204363D01*
X59509635Y-128192588D01*
X59507516Y-128188754D01*
X59364515Y-127930006D01*
X59358491Y-127917497D01*
X59243675Y-127640296D01*
X59239091Y-127627195D01*
X59156036Y-127338880D01*
X59152944Y-127325326D01*
X59133453Y-127210596D01*
X59102696Y-127029548D01*
X59101142Y-127015758D01*
X59084133Y-126712719D01*
X59083939Y-126705772D01*
X59083939Y-126699051D01*
X59083940Y-126669365D01*
X59083939Y-126669362D01*
X59083939Y-108760483D01*
X77225808Y-108760483D01*
X77225808Y-108918176D01*
X77256569Y-109072819D01*
X77256572Y-109072831D01*
X77316910Y-109218502D01*
X77316917Y-109218515D01*
X77404518Y-109349618D01*
X77404521Y-109349622D01*
X77516015Y-109461116D01*
X77516019Y-109461119D01*
X77647122Y-109548720D01*
X77647135Y-109548727D01*
X77772891Y-109600816D01*
X77792811Y-109609067D01*
X77947461Y-109639829D01*
X77947464Y-109639830D01*
X77947466Y-109639830D01*
X78105152Y-109639830D01*
X78105153Y-109639829D01*
X78259805Y-109609067D01*
X78405487Y-109548724D01*
X78536597Y-109461119D01*
X78648097Y-109349619D01*
X78735702Y-109218509D01*
X78796045Y-109072827D01*
X78816717Y-108968905D01*
X78827997Y-108912198D01*
X78830690Y-108912733D01*
X78852378Y-108858921D01*
X78861982Y-108848124D01*
X80573288Y-107136819D01*
X80634611Y-107103334D01*
X80660969Y-107100500D01*
X95305903Y-107100500D01*
X95372942Y-107120185D01*
X95418697Y-107172989D01*
X95428641Y-107242147D01*
X95399616Y-107305703D01*
X95393584Y-107312181D01*
X94663460Y-108042304D01*
X94602137Y-108075789D01*
X94599971Y-108076240D01*
X94444629Y-108107140D01*
X94444619Y-108107143D01*
X94298948Y-108167481D01*
X94298935Y-108167488D01*
X94167832Y-108255089D01*
X94167828Y-108255092D01*
X94056334Y-108366586D01*
X94056331Y-108366590D01*
X93968730Y-108497693D01*
X93968723Y-108497706D01*
X93908385Y-108643377D01*
X93908382Y-108643389D01*
X93877621Y-108798032D01*
X93877621Y-108955725D01*
X93908382Y-109110368D01*
X93908385Y-109110380D01*
X93968723Y-109256051D01*
X93968730Y-109256064D01*
X94056331Y-109387167D01*
X94056334Y-109387171D01*
X94167828Y-109498665D01*
X94167832Y-109498668D01*
X94298935Y-109586269D01*
X94298948Y-109586276D01*
X94428241Y-109639830D01*
X94444624Y-109646616D01*
X94573419Y-109672235D01*
X94599274Y-109677378D01*
X94599277Y-109677379D01*
X94599279Y-109677379D01*
X94756965Y-109677379D01*
X94756966Y-109677378D01*
X94911618Y-109646616D01*
X95057300Y-109586273D01*
X95188410Y-109498668D01*
X95299910Y-109387168D01*
X95387515Y-109256058D01*
X95447858Y-109110376D01*
X95475999Y-108968905D01*
X95478759Y-108955029D01*
X95511144Y-108893118D01*
X95512639Y-108891595D01*
X96317419Y-108086816D01*
X96378742Y-108053331D01*
X96405100Y-108050497D01*
X110827977Y-108050497D01*
X110895016Y-108070182D01*
X110940771Y-108122986D01*
X110950715Y-108192144D01*
X110921690Y-108255700D01*
X110896867Y-108277599D01*
X110892215Y-108280707D01*
X110892207Y-108280713D01*
X110780713Y-108392207D01*
X110780710Y-108392211D01*
X110693109Y-108523314D01*
X110693102Y-108523327D01*
X110632764Y-108668998D01*
X110632761Y-108669010D01*
X110602000Y-108823653D01*
X110602000Y-108981346D01*
X110632761Y-109135989D01*
X110632764Y-109136001D01*
X110693102Y-109281672D01*
X110693109Y-109281685D01*
X110780710Y-109412788D01*
X110780713Y-109412792D01*
X110892207Y-109524286D01*
X110892211Y-109524289D01*
X111023314Y-109611890D01*
X111023327Y-109611897D01*
X111107150Y-109646617D01*
X111169003Y-109672237D01*
X111323653Y-109702999D01*
X111323656Y-109703000D01*
X111323658Y-109703000D01*
X111481344Y-109703000D01*
X111481345Y-109702999D01*
X111635997Y-109672237D01*
X111781679Y-109611894D01*
X111912789Y-109524289D01*
X112024289Y-109412789D01*
X112111894Y-109281679D01*
X112122507Y-109256058D01*
X112133956Y-109228417D01*
X112172237Y-109135997D01*
X112195363Y-109019735D01*
X112203138Y-108980650D01*
X112211903Y-108963893D01*
X112215924Y-108945412D01*
X112234668Y-108920372D01*
X112235523Y-108918739D01*
X112236967Y-108917267D01*
X112267419Y-108886815D01*
X112328741Y-108853333D01*
X112355097Y-108850500D01*
X123920234Y-108850500D01*
X123987273Y-108870185D01*
X123989125Y-108871398D01*
X124120814Y-108959390D01*
X124120827Y-108959397D01*
X124183453Y-108985337D01*
X124266503Y-109019737D01*
X124421153Y-109050499D01*
X124421156Y-109050500D01*
X124421158Y-109050500D01*
X124578844Y-109050500D01*
X124578845Y-109050499D01*
X124733497Y-109019737D01*
X124856217Y-108968905D01*
X124879172Y-108959397D01*
X124879172Y-108959396D01*
X124879179Y-108959394D01*
X125010289Y-108871789D01*
X125121789Y-108760289D01*
X125209394Y-108629179D01*
X125212854Y-108620827D01*
X125267163Y-108489711D01*
X125269737Y-108483497D01*
X125300500Y-108328842D01*
X125300500Y-108171158D01*
X125300500Y-108171155D01*
X125300499Y-108171153D01*
X125292300Y-108129936D01*
X125269737Y-108016503D01*
X125220423Y-107897449D01*
X125212955Y-107827981D01*
X125220421Y-107802551D01*
X125269737Y-107683494D01*
X125300500Y-107528839D01*
X125300500Y-107371155D01*
X125300500Y-107371152D01*
X125300499Y-107371150D01*
X125287481Y-107305703D01*
X125269737Y-107216500D01*
X125251714Y-107172989D01*
X125209397Y-107070824D01*
X125209389Y-107070809D01*
X125191401Y-107043889D01*
X125170522Y-106977212D01*
X125189006Y-106909832D01*
X125191358Y-106906170D01*
X125209394Y-106879179D01*
X125269737Y-106733497D01*
X125300500Y-106578842D01*
X125300500Y-106421158D01*
X125300500Y-106421155D01*
X125300499Y-106421153D01*
X125269738Y-106266510D01*
X125269737Y-106266503D01*
X125213728Y-106131284D01*
X125209397Y-106120827D01*
X125209390Y-106120814D01*
X125121789Y-105989711D01*
X125121786Y-105989707D01*
X125010292Y-105878213D01*
X125010288Y-105878210D01*
X124879185Y-105790609D01*
X124879172Y-105790602D01*
X124733501Y-105730264D01*
X124733489Y-105730261D01*
X124578845Y-105699500D01*
X124578842Y-105699500D01*
X124421158Y-105699500D01*
X124421155Y-105699500D01*
X124266510Y-105730261D01*
X124266498Y-105730264D01*
X124120827Y-105790602D01*
X124120814Y-105790609D01*
X123989125Y-105878602D01*
X123922447Y-105899480D01*
X123920234Y-105899500D01*
X80439929Y-105899500D01*
X80281815Y-105899500D01*
X80129087Y-105940423D01*
X80129086Y-105940423D01*
X80129084Y-105940424D01*
X80129081Y-105940425D01*
X80078968Y-105969359D01*
X80078967Y-105969360D01*
X80043725Y-105989707D01*
X79992157Y-106019479D01*
X79992154Y-106019481D01*
X78005697Y-108005939D01*
X77944374Y-108039424D01*
X77942208Y-108039875D01*
X77792816Y-108069591D01*
X77792806Y-108069594D01*
X77647135Y-108129932D01*
X77647122Y-108129939D01*
X77516019Y-108217540D01*
X77516015Y-108217543D01*
X77404521Y-108329037D01*
X77404518Y-108329041D01*
X77316917Y-108460144D01*
X77316910Y-108460157D01*
X77256572Y-108605828D01*
X77256569Y-108605840D01*
X77225808Y-108760483D01*
X59083939Y-108760483D01*
X59083939Y-104671153D01*
X72449500Y-104671153D01*
X72449500Y-104828846D01*
X72480261Y-104983489D01*
X72480264Y-104983501D01*
X72540602Y-105129172D01*
X72540609Y-105129185D01*
X72628210Y-105260288D01*
X72628213Y-105260292D01*
X72739707Y-105371786D01*
X72739711Y-105371789D01*
X72870814Y-105459390D01*
X72870827Y-105459397D01*
X73016498Y-105519735D01*
X73016503Y-105519737D01*
X73171153Y-105550499D01*
X73171156Y-105550500D01*
X73171158Y-105550500D01*
X73328844Y-105550500D01*
X73328845Y-105550499D01*
X73483497Y-105519737D01*
X73629179Y-105459394D01*
X73760289Y-105371789D01*
X73871789Y-105260289D01*
X73959394Y-105129179D01*
X74019737Y-104983497D01*
X74050500Y-104828842D01*
X74050500Y-104671158D01*
X74050500Y-104671155D01*
X74050499Y-104671153D01*
X89199500Y-104671153D01*
X89199500Y-104828846D01*
X89230261Y-104983489D01*
X89230264Y-104983501D01*
X89290602Y-105129172D01*
X89290609Y-105129185D01*
X89378210Y-105260288D01*
X89378213Y-105260292D01*
X89489707Y-105371786D01*
X89489711Y-105371789D01*
X89620814Y-105459390D01*
X89620827Y-105459397D01*
X89766498Y-105519735D01*
X89766503Y-105519737D01*
X89921153Y-105550499D01*
X89921156Y-105550500D01*
X89921158Y-105550500D01*
X90078844Y-105550500D01*
X90078845Y-105550499D01*
X90233497Y-105519737D01*
X90379179Y-105459394D01*
X90510289Y-105371789D01*
X90621789Y-105260289D01*
X90709394Y-105129179D01*
X90769737Y-104983497D01*
X90800500Y-104828842D01*
X90800500Y-104671158D01*
X90800500Y-104671155D01*
X90800499Y-104671153D01*
X105949500Y-104671153D01*
X105949500Y-104828846D01*
X105980261Y-104983489D01*
X105980264Y-104983501D01*
X106040602Y-105129172D01*
X106040609Y-105129185D01*
X106128210Y-105260288D01*
X106128213Y-105260292D01*
X106239707Y-105371786D01*
X106239711Y-105371789D01*
X106370814Y-105459390D01*
X106370827Y-105459397D01*
X106516498Y-105519735D01*
X106516503Y-105519737D01*
X106671153Y-105550499D01*
X106671156Y-105550500D01*
X106671158Y-105550500D01*
X106828844Y-105550500D01*
X106828845Y-105550499D01*
X106983497Y-105519737D01*
X107129179Y-105459394D01*
X107260289Y-105371789D01*
X107371789Y-105260289D01*
X107459394Y-105129179D01*
X107519737Y-104983497D01*
X107550500Y-104828842D01*
X107550500Y-104671158D01*
X107550500Y-104671155D01*
X107550499Y-104671153D01*
X107519738Y-104516510D01*
X107519737Y-104516503D01*
X107480242Y-104421153D01*
X107459397Y-104370827D01*
X107459390Y-104370814D01*
X107371398Y-104239125D01*
X107350520Y-104172447D01*
X107350500Y-104170234D01*
X107350500Y-103147955D01*
X107370185Y-103080916D01*
X107422989Y-103035161D01*
X107450303Y-103026339D01*
X107483497Y-103019737D01*
X107629179Y-102959394D01*
X107760289Y-102871789D01*
X107871789Y-102760289D01*
X107959394Y-102629179D01*
X107962854Y-102620827D01*
X107991984Y-102550499D01*
X108019737Y-102483497D01*
X108050500Y-102328842D01*
X108050500Y-102171158D01*
X108050500Y-102171155D01*
X108050499Y-102171153D01*
X108019738Y-102016510D01*
X108019738Y-102016508D01*
X108019737Y-102016503D01*
X108000577Y-101970247D01*
X107959397Y-101870827D01*
X107959390Y-101870814D01*
X107871789Y-101739711D01*
X107871786Y-101739707D01*
X107760292Y-101628213D01*
X107760288Y-101628210D01*
X107629185Y-101540609D01*
X107629172Y-101540602D01*
X107483501Y-101480264D01*
X107483489Y-101480261D01*
X107328845Y-101449500D01*
X107328842Y-101449500D01*
X107171158Y-101449500D01*
X107171155Y-101449500D01*
X107016510Y-101480261D01*
X107016498Y-101480264D01*
X106870827Y-101540602D01*
X106870814Y-101540609D01*
X106739711Y-101628210D01*
X106739707Y-101628213D01*
X106628213Y-101739707D01*
X106628210Y-101739711D01*
X106540609Y-101870814D01*
X106540602Y-101870827D01*
X106480264Y-102016498D01*
X106480261Y-102016508D01*
X106449362Y-102171847D01*
X106440597Y-102188602D01*
X106436578Y-102207081D01*
X106417834Y-102232118D01*
X106416977Y-102233758D01*
X106415427Y-102235335D01*
X106374224Y-102276538D01*
X106374212Y-102276552D01*
X106269478Y-102381285D01*
X106246585Y-102420939D01*
X106230096Y-102449500D01*
X106190423Y-102518215D01*
X106149499Y-102670943D01*
X106149499Y-102670945D01*
X106149499Y-102839046D01*
X106149500Y-102839059D01*
X106149500Y-104170234D01*
X106129815Y-104237273D01*
X106128602Y-104239125D01*
X106040609Y-104370814D01*
X106040602Y-104370827D01*
X105980264Y-104516498D01*
X105980261Y-104516510D01*
X105949500Y-104671153D01*
X90800499Y-104671153D01*
X90769738Y-104516510D01*
X90769737Y-104516503D01*
X90730242Y-104421153D01*
X90709397Y-104370827D01*
X90709390Y-104370814D01*
X90621398Y-104239125D01*
X90600520Y-104172447D01*
X90600500Y-104170234D01*
X90600500Y-103147955D01*
X90620185Y-103080916D01*
X90672989Y-103035161D01*
X90700303Y-103026339D01*
X90733497Y-103019737D01*
X90879179Y-102959394D01*
X91010289Y-102871789D01*
X91121789Y-102760289D01*
X91209394Y-102629179D01*
X91212854Y-102620827D01*
X91241984Y-102550499D01*
X91269737Y-102483497D01*
X91300500Y-102328842D01*
X91300500Y-102171158D01*
X91300500Y-102171155D01*
X91300499Y-102171153D01*
X91269738Y-102016510D01*
X91269738Y-102016508D01*
X91269737Y-102016503D01*
X91250577Y-101970247D01*
X91209397Y-101870827D01*
X91209390Y-101870814D01*
X91121789Y-101739711D01*
X91121786Y-101739707D01*
X91010292Y-101628213D01*
X91010288Y-101628210D01*
X90879185Y-101540609D01*
X90879172Y-101540602D01*
X90733501Y-101480264D01*
X90733489Y-101480261D01*
X90578845Y-101449500D01*
X90578842Y-101449500D01*
X90421158Y-101449500D01*
X90421155Y-101449500D01*
X90266510Y-101480261D01*
X90266498Y-101480264D01*
X90120827Y-101540602D01*
X90120814Y-101540609D01*
X89989711Y-101628210D01*
X89989707Y-101628213D01*
X89878213Y-101739707D01*
X89878210Y-101739711D01*
X89790609Y-101870814D01*
X89790602Y-101870827D01*
X89730264Y-102016498D01*
X89730261Y-102016508D01*
X89699362Y-102171847D01*
X89690597Y-102188602D01*
X89686578Y-102207081D01*
X89667834Y-102232118D01*
X89666977Y-102233758D01*
X89665427Y-102235335D01*
X89624224Y-102276538D01*
X89624212Y-102276552D01*
X89519478Y-102381285D01*
X89496585Y-102420939D01*
X89480096Y-102449500D01*
X89440423Y-102518215D01*
X89399499Y-102670943D01*
X89399499Y-102670945D01*
X89399499Y-102839046D01*
X89399500Y-102839059D01*
X89399500Y-104170234D01*
X89379815Y-104237273D01*
X89378602Y-104239125D01*
X89290609Y-104370814D01*
X89290602Y-104370827D01*
X89230264Y-104516498D01*
X89230261Y-104516510D01*
X89199500Y-104671153D01*
X74050499Y-104671153D01*
X74019738Y-104516510D01*
X74019737Y-104516503D01*
X73980242Y-104421153D01*
X73959397Y-104370827D01*
X73959390Y-104370814D01*
X73871398Y-104239125D01*
X73850520Y-104172447D01*
X73850500Y-104170234D01*
X73850500Y-103147955D01*
X73870185Y-103080916D01*
X73922989Y-103035161D01*
X73950303Y-103026339D01*
X73983497Y-103019737D01*
X74129179Y-102959394D01*
X74260289Y-102871789D01*
X74371789Y-102760289D01*
X74459394Y-102629179D01*
X74462854Y-102620827D01*
X74491984Y-102550499D01*
X74519737Y-102483497D01*
X74550500Y-102328842D01*
X74550500Y-102171158D01*
X74550500Y-102171155D01*
X74550499Y-102171153D01*
X74519738Y-102016510D01*
X74519738Y-102016508D01*
X74519737Y-102016503D01*
X74500577Y-101970247D01*
X74459397Y-101870827D01*
X74459390Y-101870814D01*
X74371789Y-101739711D01*
X74371786Y-101739707D01*
X74260292Y-101628213D01*
X74260288Y-101628210D01*
X74129185Y-101540609D01*
X74129172Y-101540602D01*
X73983501Y-101480264D01*
X73983489Y-101480261D01*
X73828845Y-101449500D01*
X73828842Y-101449500D01*
X73671158Y-101449500D01*
X73671155Y-101449500D01*
X73516510Y-101480261D01*
X73516498Y-101480264D01*
X73370827Y-101540602D01*
X73370814Y-101540609D01*
X73239711Y-101628210D01*
X73239707Y-101628213D01*
X73128213Y-101739707D01*
X73128210Y-101739711D01*
X73040609Y-101870814D01*
X73040602Y-101870827D01*
X72980264Y-102016498D01*
X72980261Y-102016508D01*
X72949362Y-102171847D01*
X72940597Y-102188602D01*
X72936578Y-102207081D01*
X72917834Y-102232118D01*
X72916977Y-102233758D01*
X72915427Y-102235335D01*
X72874224Y-102276538D01*
X72874212Y-102276552D01*
X72769478Y-102381285D01*
X72746585Y-102420939D01*
X72730096Y-102449500D01*
X72690423Y-102518215D01*
X72649499Y-102670943D01*
X72649499Y-102670945D01*
X72649499Y-102839046D01*
X72649500Y-102839059D01*
X72649500Y-104170234D01*
X72629815Y-104237273D01*
X72628602Y-104239125D01*
X72540609Y-104370814D01*
X72540602Y-104370827D01*
X72480264Y-104516498D01*
X72480261Y-104516510D01*
X72449500Y-104671153D01*
X59083939Y-104671153D01*
X59083939Y-94921153D01*
X62449500Y-94921153D01*
X62449500Y-95078846D01*
X62480261Y-95233489D01*
X62480264Y-95233501D01*
X62540602Y-95379172D01*
X62540609Y-95379185D01*
X62628602Y-95510874D01*
X62649480Y-95577551D01*
X62649500Y-95579765D01*
X62649500Y-102413330D01*
X62649499Y-102413348D01*
X62649499Y-102579054D01*
X62649498Y-102579054D01*
X62649499Y-102579057D01*
X62690423Y-102731785D01*
X62690424Y-102731787D01*
X62690423Y-102731787D01*
X62703986Y-102755277D01*
X62703987Y-102755279D01*
X62769475Y-102868709D01*
X62769481Y-102868717D01*
X62888349Y-102987585D01*
X62888355Y-102987590D01*
X63165425Y-103264660D01*
X63198910Y-103325983D01*
X63199361Y-103328149D01*
X63230261Y-103483491D01*
X63230264Y-103483501D01*
X63290602Y-103629172D01*
X63290609Y-103629185D01*
X63378210Y-103760288D01*
X63378213Y-103760292D01*
X63489707Y-103871786D01*
X63489711Y-103871789D01*
X63620814Y-103959390D01*
X63620827Y-103959397D01*
X63694013Y-103989711D01*
X63766503Y-104019737D01*
X63921153Y-104050499D01*
X63921156Y-104050500D01*
X63921158Y-104050500D01*
X64078844Y-104050500D01*
X64078845Y-104050499D01*
X64233497Y-104019737D01*
X64379179Y-103959394D01*
X64510289Y-103871789D01*
X64621789Y-103760289D01*
X64709394Y-103629179D01*
X64769737Y-103483497D01*
X64800500Y-103328842D01*
X64800500Y-103171158D01*
X64800500Y-103171155D01*
X64800499Y-103171153D01*
X64795885Y-103147955D01*
X64769737Y-103016503D01*
X64754833Y-102980521D01*
X64709397Y-102870827D01*
X64709390Y-102870814D01*
X64621789Y-102739711D01*
X64621786Y-102739707D01*
X64510292Y-102628213D01*
X64510288Y-102628210D01*
X64379185Y-102540609D01*
X64379172Y-102540602D01*
X64233501Y-102480264D01*
X64233491Y-102480261D01*
X64078149Y-102449361D01*
X64061392Y-102440595D01*
X64042914Y-102436576D01*
X64017877Y-102417833D01*
X64016238Y-102416976D01*
X64014660Y-102415425D01*
X63886819Y-102287584D01*
X63853334Y-102226261D01*
X63850500Y-102199903D01*
X63850500Y-95579765D01*
X63870185Y-95512726D01*
X63871398Y-95510874D01*
X63959390Y-95379185D01*
X63959390Y-95379184D01*
X63959394Y-95379179D01*
X64019737Y-95233497D01*
X64050500Y-95078842D01*
X64050500Y-94921158D01*
X64050500Y-94921155D01*
X64050499Y-94921153D01*
X64019738Y-94766510D01*
X64019737Y-94766503D01*
X64016978Y-94759841D01*
X63959397Y-94620827D01*
X63959390Y-94620814D01*
X63871789Y-94489711D01*
X63871786Y-94489707D01*
X63760292Y-94378213D01*
X63760288Y-94378210D01*
X63629185Y-94290609D01*
X63629172Y-94290602D01*
X63483501Y-94230264D01*
X63483489Y-94230261D01*
X63328845Y-94199500D01*
X63328842Y-94199500D01*
X63171158Y-94199500D01*
X63171155Y-94199500D01*
X63016510Y-94230261D01*
X63016498Y-94230264D01*
X62870827Y-94290602D01*
X62870814Y-94290609D01*
X62739711Y-94378210D01*
X62739707Y-94378213D01*
X62628213Y-94489707D01*
X62628210Y-94489711D01*
X62540609Y-94620814D01*
X62540602Y-94620827D01*
X62480264Y-94766498D01*
X62480261Y-94766510D01*
X62449500Y-94921153D01*
X59083939Y-94921153D01*
X59083939Y-87171158D01*
X62259500Y-87171158D01*
X62259500Y-87179001D01*
X62259500Y-87328846D01*
X62290261Y-87483489D01*
X62290264Y-87483501D01*
X62350602Y-87629172D01*
X62350609Y-87629185D01*
X62438210Y-87760288D01*
X62438213Y-87760292D01*
X62549707Y-87871786D01*
X62549711Y-87871789D01*
X62680814Y-87959390D01*
X62680827Y-87959397D01*
X62812049Y-88013750D01*
X62826503Y-88019737D01*
X62981153Y-88050499D01*
X62981156Y-88050500D01*
X62981158Y-88050500D01*
X63138844Y-88050500D01*
X63138845Y-88050499D01*
X63293497Y-88019737D01*
X63439179Y-87959394D01*
X63570289Y-87871789D01*
X63681789Y-87760289D01*
X63769394Y-87629179D01*
X63829737Y-87483497D01*
X63860500Y-87328842D01*
X63860500Y-87232776D01*
X63869144Y-87203335D01*
X63875668Y-87173349D01*
X63879422Y-87168333D01*
X63880185Y-87165737D01*
X63896819Y-87145095D01*
X63905095Y-87136819D01*
X63966418Y-87103334D01*
X63992776Y-87100500D01*
X78889876Y-87100500D01*
X78956915Y-87120185D01*
X79002670Y-87172989D01*
X79013876Y-87224500D01*
X79013876Y-87264470D01*
X79044637Y-87419113D01*
X79044640Y-87419125D01*
X79104978Y-87564796D01*
X79104985Y-87564809D01*
X79192586Y-87695912D01*
X79192589Y-87695916D01*
X79304083Y-87807410D01*
X79304087Y-87807413D01*
X79435190Y-87895014D01*
X79435203Y-87895021D01*
X79576159Y-87953406D01*
X79580879Y-87955361D01*
X79735529Y-87986123D01*
X79735532Y-87986124D01*
X79735534Y-87986124D01*
X79893220Y-87986124D01*
X79893221Y-87986123D01*
X80047873Y-87955361D01*
X80193555Y-87895018D01*
X80324665Y-87807413D01*
X80436165Y-87695913D01*
X80523770Y-87564803D01*
X80533567Y-87541148D01*
X80560445Y-87500921D01*
X80924549Y-87136819D01*
X80985872Y-87103334D01*
X81012230Y-87100500D01*
X95635500Y-87100500D01*
X95702539Y-87120185D01*
X95748294Y-87172989D01*
X95759500Y-87224500D01*
X95759500Y-87328846D01*
X95790261Y-87483489D01*
X95790264Y-87483501D01*
X95850602Y-87629172D01*
X95850609Y-87629185D01*
X95938210Y-87760288D01*
X95938213Y-87760292D01*
X96049707Y-87871786D01*
X96049711Y-87871789D01*
X96180814Y-87959390D01*
X96180827Y-87959397D01*
X96312049Y-88013750D01*
X96326503Y-88019737D01*
X96481153Y-88050499D01*
X96481156Y-88050500D01*
X96481158Y-88050500D01*
X96638844Y-88050500D01*
X96638845Y-88050499D01*
X96793497Y-88019737D01*
X96939179Y-87959394D01*
X97070289Y-87871789D01*
X97181789Y-87760289D01*
X97269394Y-87629179D01*
X97279192Y-87605521D01*
X97306069Y-87565296D01*
X97734548Y-87136819D01*
X97795871Y-87103334D01*
X97822229Y-87100500D01*
X112385378Y-87100500D01*
X112452417Y-87120185D01*
X112498172Y-87172989D01*
X112509378Y-87224500D01*
X112509378Y-87322858D01*
X112540139Y-87477501D01*
X112540142Y-87477513D01*
X112600480Y-87623184D01*
X112600487Y-87623197D01*
X112688088Y-87754300D01*
X112688091Y-87754304D01*
X112799585Y-87865798D01*
X112799589Y-87865801D01*
X112930692Y-87953402D01*
X112930705Y-87953409D01*
X113076376Y-88013747D01*
X113076381Y-88013749D01*
X113231031Y-88044511D01*
X113231034Y-88044512D01*
X113231036Y-88044512D01*
X113388722Y-88044512D01*
X113388723Y-88044511D01*
X113543375Y-88013749D01*
X113689057Y-87953406D01*
X113820167Y-87865801D01*
X113931667Y-87754301D01*
X114019272Y-87623191D01*
X114029069Y-87599536D01*
X114055947Y-87559309D01*
X114478439Y-87136819D01*
X114539762Y-87103334D01*
X114566120Y-87100500D01*
X132125500Y-87100500D01*
X132192539Y-87120185D01*
X132238294Y-87172989D01*
X132249500Y-87224500D01*
X132249500Y-91775500D01*
X132229815Y-91842539D01*
X132177011Y-91888294D01*
X132125500Y-91899500D01*
X129526076Y-91899500D01*
X129497242Y-91905234D01*
X129497243Y-91905235D01*
X129381092Y-91928339D01*
X129381086Y-91928341D01*
X129319798Y-91953728D01*
X129319792Y-91953730D01*
X129313996Y-91956132D01*
X129244505Y-91984916D01*
X129177295Y-92029824D01*
X129172386Y-92033103D01*
X129172386Y-92033104D01*
X129121586Y-92067046D01*
X129121581Y-92067050D01*
X126167050Y-95021580D01*
X126167044Y-95021588D01*
X126117812Y-95095268D01*
X126117813Y-95095269D01*
X126084921Y-95144496D01*
X126084914Y-95144508D01*
X126028342Y-95281086D01*
X126028340Y-95281092D01*
X125999500Y-95426079D01*
X125999500Y-100275500D01*
X125979815Y-100342539D01*
X125927011Y-100388294D01*
X125875500Y-100399500D01*
X124922388Y-100399500D01*
X124918326Y-100398307D01*
X124914194Y-100399229D01*
X124885090Y-100388548D01*
X124855349Y-100379815D01*
X124852576Y-100376615D01*
X124848602Y-100375157D01*
X124829890Y-100350434D01*
X124809594Y-100327011D01*
X124808265Y-100321861D01*
X124806436Y-100319445D01*
X124803489Y-100303355D01*
X124798752Y-100284998D01*
X124798388Y-100280259D01*
X124798388Y-100240337D01*
X124793391Y-100215219D01*
X124792823Y-100207816D01*
X124798590Y-100180614D01*
X124801068Y-100152920D01*
X124806085Y-100145263D01*
X124807315Y-100139465D01*
X124814927Y-100131772D01*
X124828777Y-100110637D01*
X124869833Y-100069583D01*
X124957438Y-99938473D01*
X125017781Y-99792791D01*
X125048544Y-99638136D01*
X125048544Y-99480452D01*
X125045395Y-99464622D01*
X125051621Y-99395033D01*
X125079331Y-99352749D01*
X125121789Y-99310292D01*
X125209394Y-99179182D01*
X125269737Y-99033500D01*
X125300500Y-98878845D01*
X125300500Y-98721161D01*
X125300500Y-98721158D01*
X125290272Y-98669742D01*
X125296499Y-98600151D01*
X125324209Y-98557868D01*
X125371789Y-98510289D01*
X125459394Y-98379179D01*
X125519737Y-98233497D01*
X125550500Y-98078842D01*
X125550500Y-97921158D01*
X125550500Y-97921155D01*
X125550499Y-97921153D01*
X125519738Y-97766510D01*
X125519737Y-97766503D01*
X125511279Y-97746083D01*
X125459397Y-97620827D01*
X125459390Y-97620814D01*
X125371789Y-97489711D01*
X125371786Y-97489707D01*
X125260292Y-97378213D01*
X125260288Y-97378210D01*
X125129185Y-97290609D01*
X125129172Y-97290602D01*
X124983501Y-97230264D01*
X124983489Y-97230261D01*
X124828845Y-97199500D01*
X124828842Y-97199500D01*
X124671158Y-97199500D01*
X124671155Y-97199500D01*
X124516510Y-97230261D01*
X124516498Y-97230264D01*
X124370827Y-97290602D01*
X124370814Y-97290609D01*
X124239125Y-97378602D01*
X124172447Y-97399480D01*
X124170234Y-97399500D01*
X122950097Y-97399500D01*
X122883058Y-97379815D01*
X122862416Y-97363181D01*
X117484574Y-91985339D01*
X117451089Y-91924016D01*
X117450638Y-91921849D01*
X117428807Y-91812100D01*
X117419737Y-91766503D01*
X117371352Y-91649690D01*
X117359397Y-91620827D01*
X117359390Y-91620814D01*
X117271789Y-91489711D01*
X117271786Y-91489707D01*
X117160292Y-91378213D01*
X117160288Y-91378210D01*
X117029185Y-91290609D01*
X117029172Y-91290602D01*
X116883501Y-91230264D01*
X116883489Y-91230261D01*
X116728845Y-91199500D01*
X116728842Y-91199500D01*
X116571158Y-91199500D01*
X116571155Y-91199500D01*
X116416510Y-91230261D01*
X116416498Y-91230264D01*
X116270827Y-91290602D01*
X116270814Y-91290609D01*
X116139711Y-91378210D01*
X116139707Y-91378213D01*
X116028213Y-91489707D01*
X116028210Y-91489711D01*
X115940609Y-91620814D01*
X115940602Y-91620827D01*
X115880264Y-91766498D01*
X115880261Y-91766510D01*
X115849500Y-91921153D01*
X115849500Y-92078846D01*
X115880261Y-92233489D01*
X115882031Y-92239324D01*
X115879279Y-92240158D01*
X115885503Y-92297359D01*
X115854309Y-92359878D01*
X115794266Y-92395608D01*
X115763445Y-92399500D01*
X101300098Y-92399500D01*
X101233059Y-92379815D01*
X101212417Y-92363181D01*
X100834573Y-91985337D01*
X100801088Y-91924014D01*
X100800637Y-91921847D01*
X100790130Y-91869025D01*
X100769737Y-91766503D01*
X100721352Y-91649690D01*
X100709397Y-91620827D01*
X100709390Y-91620814D01*
X100621789Y-91489711D01*
X100621786Y-91489707D01*
X100510292Y-91378213D01*
X100510288Y-91378210D01*
X100379185Y-91290609D01*
X100379172Y-91290602D01*
X100233501Y-91230264D01*
X100233489Y-91230261D01*
X100078845Y-91199500D01*
X100078842Y-91199500D01*
X99921158Y-91199500D01*
X99921155Y-91199500D01*
X99766510Y-91230261D01*
X99766498Y-91230264D01*
X99620827Y-91290602D01*
X99620814Y-91290609D01*
X99489711Y-91378210D01*
X99489707Y-91378213D01*
X99378213Y-91489707D01*
X99378210Y-91489711D01*
X99290609Y-91620814D01*
X99290602Y-91620827D01*
X99230264Y-91766498D01*
X99230261Y-91766510D01*
X99199500Y-91921153D01*
X99199500Y-92078846D01*
X99230261Y-92233489D01*
X99230264Y-92233501D01*
X99290602Y-92379172D01*
X99290609Y-92379185D01*
X99378210Y-92510288D01*
X99378213Y-92510292D01*
X99489707Y-92621786D01*
X99489711Y-92621789D01*
X99565452Y-92672398D01*
X99610257Y-92726010D01*
X99618964Y-92795335D01*
X99588810Y-92858363D01*
X99529366Y-92895082D01*
X99496561Y-92899500D01*
X85050097Y-92899500D01*
X84983058Y-92879815D01*
X84962416Y-92863181D01*
X84084574Y-91985339D01*
X84051089Y-91924016D01*
X84050638Y-91921849D01*
X84028807Y-91812100D01*
X84019737Y-91766503D01*
X83971352Y-91649690D01*
X83959397Y-91620827D01*
X83959390Y-91620814D01*
X83871789Y-91489711D01*
X83871786Y-91489707D01*
X83760292Y-91378213D01*
X83760288Y-91378210D01*
X83629185Y-91290609D01*
X83629172Y-91290602D01*
X83483501Y-91230264D01*
X83483489Y-91230261D01*
X83328845Y-91199500D01*
X83328842Y-91199500D01*
X83171158Y-91199500D01*
X83171155Y-91199500D01*
X83016510Y-91230261D01*
X83016498Y-91230264D01*
X82870827Y-91290602D01*
X82870814Y-91290609D01*
X82739711Y-91378210D01*
X82739707Y-91378213D01*
X82628213Y-91489707D01*
X82628210Y-91489711D01*
X82540609Y-91620814D01*
X82540602Y-91620827D01*
X82480264Y-91766498D01*
X82480261Y-91766510D01*
X82449500Y-91921153D01*
X82449500Y-92078846D01*
X82480261Y-92233489D01*
X82480264Y-92233501D01*
X82540602Y-92379172D01*
X82540609Y-92379185D01*
X82628210Y-92510288D01*
X82628213Y-92510292D01*
X82739707Y-92621786D01*
X82739711Y-92621789D01*
X82870814Y-92709390D01*
X82870827Y-92709397D01*
X83008080Y-92766248D01*
X83016503Y-92769737D01*
X83081147Y-92782595D01*
X83171849Y-92800638D01*
X83233760Y-92833023D01*
X83235339Y-92834574D01*
X83588584Y-93187819D01*
X83622069Y-93249142D01*
X83617085Y-93318834D01*
X83575213Y-93374767D01*
X83509749Y-93399184D01*
X83500903Y-93399500D01*
X68800097Y-93399500D01*
X68733058Y-93379815D01*
X68712416Y-93363181D01*
X67334574Y-91985339D01*
X67301089Y-91924016D01*
X67300638Y-91921849D01*
X67278807Y-91812100D01*
X67269737Y-91766503D01*
X67221352Y-91649690D01*
X67209397Y-91620827D01*
X67209390Y-91620814D01*
X67121789Y-91489711D01*
X67121786Y-91489707D01*
X67010292Y-91378213D01*
X67010288Y-91378210D01*
X66879185Y-91290609D01*
X66879172Y-91290602D01*
X66733501Y-91230264D01*
X66733489Y-91230261D01*
X66578845Y-91199500D01*
X66578842Y-91199500D01*
X66421158Y-91199500D01*
X66421155Y-91199500D01*
X66266510Y-91230261D01*
X66266498Y-91230264D01*
X66120827Y-91290602D01*
X66120814Y-91290609D01*
X65989711Y-91378210D01*
X65989707Y-91378213D01*
X65878213Y-91489707D01*
X65878210Y-91489711D01*
X65790609Y-91620814D01*
X65790602Y-91620827D01*
X65730264Y-91766498D01*
X65730261Y-91766510D01*
X65699500Y-91921153D01*
X65699500Y-92078846D01*
X65730261Y-92233489D01*
X65730264Y-92233501D01*
X65790602Y-92379172D01*
X65790609Y-92379185D01*
X65878210Y-92510288D01*
X65878213Y-92510292D01*
X65989707Y-92621786D01*
X65989711Y-92621789D01*
X66120814Y-92709390D01*
X66120827Y-92709397D01*
X66258080Y-92766248D01*
X66266503Y-92769737D01*
X66331147Y-92782595D01*
X66421849Y-92800638D01*
X66483760Y-92833023D01*
X66485339Y-92834574D01*
X68015139Y-94364374D01*
X68015149Y-94364385D01*
X68019479Y-94368715D01*
X68019480Y-94368716D01*
X68131284Y-94480520D01*
X68218095Y-94530639D01*
X68218097Y-94530641D01*
X68256151Y-94552611D01*
X68268215Y-94559577D01*
X68420943Y-94600500D01*
X68579057Y-94600500D01*
X79113445Y-94600500D01*
X79180484Y-94620185D01*
X79226239Y-94672989D01*
X79236183Y-94742147D01*
X79231159Y-94760411D01*
X79232031Y-94760676D01*
X79230261Y-94766510D01*
X79199500Y-94921153D01*
X79199500Y-95078846D01*
X79230261Y-95233489D01*
X79230264Y-95233501D01*
X79290602Y-95379172D01*
X79290609Y-95379185D01*
X79378602Y-95510874D01*
X79399480Y-95577551D01*
X79399500Y-95579765D01*
X79399500Y-102413330D01*
X79399499Y-102413348D01*
X79399499Y-102579054D01*
X79399498Y-102579054D01*
X79399499Y-102579057D01*
X79440423Y-102731785D01*
X79440424Y-102731787D01*
X79440423Y-102731787D01*
X79453986Y-102755277D01*
X79453987Y-102755279D01*
X79519475Y-102868709D01*
X79519481Y-102868717D01*
X79638349Y-102987585D01*
X79638355Y-102987590D01*
X79915425Y-103264660D01*
X79948910Y-103325983D01*
X79949361Y-103328149D01*
X79980261Y-103483491D01*
X79980264Y-103483501D01*
X80040602Y-103629172D01*
X80040609Y-103629185D01*
X80128210Y-103760288D01*
X80128213Y-103760292D01*
X80239707Y-103871786D01*
X80239711Y-103871789D01*
X80370814Y-103959390D01*
X80370827Y-103959397D01*
X80444013Y-103989711D01*
X80516503Y-104019737D01*
X80671153Y-104050499D01*
X80671156Y-104050500D01*
X80671158Y-104050500D01*
X80828844Y-104050500D01*
X80828845Y-104050499D01*
X80983497Y-104019737D01*
X81129179Y-103959394D01*
X81260289Y-103871789D01*
X81371789Y-103760289D01*
X81459394Y-103629179D01*
X81519737Y-103483497D01*
X81550500Y-103328842D01*
X81550500Y-103171158D01*
X81550500Y-103171155D01*
X81550499Y-103171153D01*
X81545885Y-103147955D01*
X81519737Y-103016503D01*
X81504833Y-102980521D01*
X81459397Y-102870827D01*
X81459390Y-102870814D01*
X81371789Y-102739711D01*
X81371786Y-102739707D01*
X81260292Y-102628213D01*
X81260288Y-102628210D01*
X81129185Y-102540609D01*
X81129172Y-102540602D01*
X80983501Y-102480264D01*
X80983491Y-102480261D01*
X80828149Y-102449361D01*
X80811392Y-102440595D01*
X80792914Y-102436576D01*
X80767877Y-102417833D01*
X80766238Y-102416976D01*
X80764660Y-102415425D01*
X80636819Y-102287584D01*
X80603334Y-102226261D01*
X80600500Y-102199903D01*
X80600500Y-95579765D01*
X80620185Y-95512726D01*
X80621398Y-95510874D01*
X80709390Y-95379185D01*
X80709390Y-95379184D01*
X80709394Y-95379179D01*
X80769737Y-95233497D01*
X80800500Y-95078842D01*
X80800500Y-94921158D01*
X80800500Y-94921155D01*
X80800499Y-94921153D01*
X80769738Y-94766510D01*
X80769737Y-94766503D01*
X80769732Y-94766492D01*
X80767969Y-94760676D01*
X80770720Y-94759841D01*
X80764497Y-94702641D01*
X80795691Y-94640122D01*
X80855734Y-94604392D01*
X80886555Y-94600500D01*
X95863445Y-94600500D01*
X95930484Y-94620185D01*
X95976239Y-94672989D01*
X95986183Y-94742147D01*
X95981159Y-94760411D01*
X95982031Y-94760676D01*
X95980261Y-94766510D01*
X95949500Y-94921153D01*
X95949500Y-95078846D01*
X95980261Y-95233489D01*
X95980264Y-95233501D01*
X96040602Y-95379172D01*
X96040609Y-95379185D01*
X96128602Y-95510874D01*
X96149480Y-95577551D01*
X96149500Y-95579765D01*
X96149500Y-102413330D01*
X96149499Y-102413348D01*
X96149499Y-102579054D01*
X96149498Y-102579054D01*
X96149499Y-102579057D01*
X96190423Y-102731785D01*
X96190424Y-102731787D01*
X96190423Y-102731787D01*
X96203986Y-102755277D01*
X96203987Y-102755279D01*
X96269475Y-102868709D01*
X96269481Y-102868717D01*
X96388349Y-102987585D01*
X96388355Y-102987590D01*
X96665425Y-103264660D01*
X96698910Y-103325983D01*
X96699361Y-103328149D01*
X96730261Y-103483491D01*
X96730264Y-103483501D01*
X96790602Y-103629172D01*
X96790609Y-103629185D01*
X96878210Y-103760288D01*
X96878213Y-103760292D01*
X96989707Y-103871786D01*
X96989711Y-103871789D01*
X97120814Y-103959390D01*
X97120827Y-103959397D01*
X97194013Y-103989711D01*
X97266503Y-104019737D01*
X97421153Y-104050499D01*
X97421156Y-104050500D01*
X97421158Y-104050500D01*
X97578844Y-104050500D01*
X97578845Y-104050499D01*
X97733497Y-104019737D01*
X97879179Y-103959394D01*
X98010289Y-103871789D01*
X98121789Y-103760289D01*
X98209394Y-103629179D01*
X98269737Y-103483497D01*
X98300500Y-103328842D01*
X98300500Y-103171158D01*
X98300500Y-103171155D01*
X98300499Y-103171153D01*
X98295885Y-103147955D01*
X98269737Y-103016503D01*
X98254833Y-102980521D01*
X98209397Y-102870827D01*
X98209390Y-102870814D01*
X98121789Y-102739711D01*
X98121786Y-102739707D01*
X98010292Y-102628213D01*
X98010288Y-102628210D01*
X97879185Y-102540609D01*
X97879172Y-102540602D01*
X97733501Y-102480264D01*
X97733491Y-102480261D01*
X97578149Y-102449361D01*
X97561392Y-102440595D01*
X97542914Y-102436576D01*
X97517877Y-102417833D01*
X97516238Y-102416976D01*
X97514660Y-102415425D01*
X97386819Y-102287584D01*
X97353334Y-102226261D01*
X97350500Y-102199903D01*
X97350500Y-95579765D01*
X97370185Y-95512726D01*
X97371398Y-95510874D01*
X97459390Y-95379185D01*
X97459390Y-95379184D01*
X97459394Y-95379179D01*
X97519737Y-95233497D01*
X97550500Y-95078842D01*
X97550500Y-94921158D01*
X97550500Y-94921155D01*
X97550499Y-94921153D01*
X97519738Y-94766510D01*
X97519737Y-94766503D01*
X97519732Y-94766492D01*
X97517969Y-94760676D01*
X97520720Y-94759841D01*
X97514497Y-94702641D01*
X97545691Y-94640122D01*
X97605734Y-94604392D01*
X97636555Y-94600500D01*
X112613445Y-94600500D01*
X112680484Y-94620185D01*
X112726239Y-94672989D01*
X112736183Y-94742147D01*
X112731159Y-94760411D01*
X112732031Y-94760676D01*
X112730261Y-94766510D01*
X112699500Y-94921153D01*
X112699500Y-95078846D01*
X112730261Y-95233489D01*
X112730264Y-95233501D01*
X112790602Y-95379172D01*
X112790609Y-95379185D01*
X112878602Y-95510874D01*
X112899480Y-95577551D01*
X112899500Y-95579765D01*
X112899500Y-102413330D01*
X112899499Y-102413348D01*
X112899499Y-102579054D01*
X112899498Y-102579054D01*
X112899499Y-102579057D01*
X112940423Y-102731785D01*
X112940424Y-102731787D01*
X112940423Y-102731787D01*
X112953986Y-102755277D01*
X112953987Y-102755279D01*
X113019475Y-102868709D01*
X113019481Y-102868717D01*
X113138349Y-102987585D01*
X113138355Y-102987590D01*
X113415425Y-103264660D01*
X113448910Y-103325983D01*
X113449361Y-103328149D01*
X113480261Y-103483491D01*
X113480264Y-103483501D01*
X113540602Y-103629172D01*
X113540609Y-103629185D01*
X113628210Y-103760288D01*
X113628213Y-103760292D01*
X113739707Y-103871786D01*
X113739711Y-103871789D01*
X113870814Y-103959390D01*
X113870827Y-103959397D01*
X113944013Y-103989711D01*
X114016503Y-104019737D01*
X114171153Y-104050499D01*
X114171156Y-104050500D01*
X114171158Y-104050500D01*
X114328844Y-104050500D01*
X114328845Y-104050499D01*
X114483497Y-104019737D01*
X114629179Y-103959394D01*
X114760289Y-103871789D01*
X114871789Y-103760289D01*
X114959394Y-103629179D01*
X115019737Y-103483497D01*
X115050500Y-103328842D01*
X115050500Y-103171158D01*
X115050500Y-103171155D01*
X115050499Y-103171153D01*
X115045885Y-103147955D01*
X115019737Y-103016503D01*
X115004833Y-102980521D01*
X114959397Y-102870827D01*
X114959390Y-102870814D01*
X114871789Y-102739711D01*
X114871786Y-102739707D01*
X114760292Y-102628213D01*
X114760288Y-102628210D01*
X114629185Y-102540609D01*
X114629172Y-102540602D01*
X114483501Y-102480264D01*
X114483491Y-102480261D01*
X114328149Y-102449361D01*
X114311392Y-102440595D01*
X114292914Y-102436576D01*
X114267877Y-102417833D01*
X114266238Y-102416976D01*
X114264660Y-102415425D01*
X114136819Y-102287584D01*
X114103334Y-102226261D01*
X114100500Y-102199903D01*
X114100500Y-95579765D01*
X114120185Y-95512726D01*
X114121398Y-95510874D01*
X114209390Y-95379185D01*
X114209390Y-95379184D01*
X114209394Y-95379179D01*
X114269737Y-95233497D01*
X114300500Y-95078842D01*
X114300500Y-94921158D01*
X114300500Y-94921155D01*
X114300499Y-94921153D01*
X114269738Y-94766510D01*
X114269737Y-94766503D01*
X114269732Y-94766492D01*
X114267969Y-94760676D01*
X114270720Y-94759841D01*
X114264497Y-94702641D01*
X114295691Y-94640122D01*
X114355734Y-94604392D01*
X114386555Y-94600500D01*
X115949903Y-94600500D01*
X116016942Y-94620185D01*
X116037584Y-94636819D01*
X121588584Y-100187819D01*
X121622069Y-100249142D01*
X121617085Y-100318834D01*
X121575213Y-100374767D01*
X121509749Y-100399184D01*
X121500903Y-100399500D01*
X118404766Y-100399500D01*
X118337727Y-100379815D01*
X118335875Y-100378602D01*
X118204185Y-100290609D01*
X118204172Y-100290602D01*
X118058501Y-100230264D01*
X118058489Y-100230261D01*
X117903845Y-100199500D01*
X117903842Y-100199500D01*
X117746158Y-100199500D01*
X117746155Y-100199500D01*
X117591510Y-100230261D01*
X117591498Y-100230264D01*
X117445827Y-100290602D01*
X117445814Y-100290609D01*
X117314711Y-100378210D01*
X117314707Y-100378213D01*
X117203213Y-100489707D01*
X117203210Y-100489711D01*
X117115609Y-100620814D01*
X117115602Y-100620827D01*
X117055264Y-100766498D01*
X117055261Y-100766510D01*
X117024500Y-100921153D01*
X117024500Y-101078846D01*
X117055261Y-101233489D01*
X117055264Y-101233501D01*
X117115602Y-101379172D01*
X117115609Y-101379185D01*
X117203602Y-101510874D01*
X117224480Y-101577551D01*
X117224500Y-101579765D01*
X117224500Y-103920234D01*
X117204815Y-103987273D01*
X117203602Y-103989125D01*
X117115609Y-104120814D01*
X117115602Y-104120827D01*
X117055264Y-104266498D01*
X117055261Y-104266510D01*
X117024500Y-104421153D01*
X117024500Y-104578846D01*
X117055261Y-104733489D01*
X117055264Y-104733501D01*
X117115602Y-104879172D01*
X117115609Y-104879185D01*
X117203210Y-105010288D01*
X117203213Y-105010292D01*
X117314707Y-105121786D01*
X117314711Y-105121789D01*
X117445814Y-105209390D01*
X117445827Y-105209397D01*
X117591498Y-105269735D01*
X117591503Y-105269737D01*
X117746153Y-105300499D01*
X117746156Y-105300500D01*
X117746158Y-105300500D01*
X117903844Y-105300500D01*
X117903845Y-105300499D01*
X118058497Y-105269737D01*
X118204179Y-105209394D01*
X118335289Y-105121789D01*
X118446789Y-105010289D01*
X118534394Y-104879179D01*
X118594737Y-104733497D01*
X118625500Y-104578842D01*
X118625500Y-104421158D01*
X118625500Y-104421155D01*
X118625499Y-104421153D01*
X118594738Y-104266510D01*
X118594737Y-104266503D01*
X118594735Y-104266498D01*
X118534397Y-104120827D01*
X118534390Y-104120814D01*
X118446398Y-103989125D01*
X118425520Y-103922447D01*
X118425500Y-103920234D01*
X118425500Y-101724500D01*
X118445185Y-101657461D01*
X118497989Y-101611706D01*
X118549500Y-101600500D01*
X123239241Y-101600500D01*
X123306280Y-101620185D01*
X123352035Y-101672989D01*
X123361979Y-101742147D01*
X123342343Y-101793391D01*
X123290609Y-101870815D01*
X123290602Y-101870827D01*
X123230264Y-102016498D01*
X123230261Y-102016508D01*
X123199362Y-102171847D01*
X123190597Y-102188602D01*
X123186578Y-102207081D01*
X123167834Y-102232118D01*
X123166977Y-102233758D01*
X123165427Y-102235335D01*
X123124224Y-102276538D01*
X123124212Y-102276552D01*
X123019478Y-102381285D01*
X122996585Y-102420939D01*
X122980096Y-102449500D01*
X122940423Y-102518215D01*
X122899499Y-102670943D01*
X122899499Y-102670945D01*
X122899499Y-102839046D01*
X122899500Y-102839059D01*
X122899500Y-104170234D01*
X122879815Y-104237273D01*
X122878602Y-104239125D01*
X122790609Y-104370814D01*
X122790602Y-104370827D01*
X122730264Y-104516498D01*
X122730261Y-104516510D01*
X122699500Y-104671153D01*
X122699500Y-104828846D01*
X122730261Y-104983489D01*
X122730264Y-104983501D01*
X122790602Y-105129172D01*
X122790609Y-105129185D01*
X122878210Y-105260288D01*
X122878213Y-105260292D01*
X122989707Y-105371786D01*
X122989711Y-105371789D01*
X123120814Y-105459390D01*
X123120827Y-105459397D01*
X123266498Y-105519735D01*
X123266503Y-105519737D01*
X123421153Y-105550499D01*
X123421156Y-105550500D01*
X123421158Y-105550500D01*
X123578844Y-105550500D01*
X123578845Y-105550499D01*
X123733497Y-105519737D01*
X123879179Y-105459394D01*
X124010289Y-105371789D01*
X124121789Y-105260289D01*
X124209394Y-105129179D01*
X124269737Y-104983497D01*
X124300500Y-104828842D01*
X124300500Y-104671158D01*
X124300500Y-104671155D01*
X124300499Y-104671153D01*
X124269738Y-104516510D01*
X124269737Y-104516503D01*
X124230242Y-104421153D01*
X124209397Y-104370827D01*
X124209390Y-104370814D01*
X124121398Y-104239125D01*
X124100520Y-104172447D01*
X124100500Y-104170234D01*
X124100500Y-103147955D01*
X124120185Y-103080916D01*
X124172989Y-103035161D01*
X124200303Y-103026339D01*
X124233497Y-103019737D01*
X124379179Y-102959394D01*
X124510289Y-102871789D01*
X124621789Y-102760289D01*
X124709394Y-102629179D01*
X124712854Y-102620827D01*
X124741984Y-102550499D01*
X124769737Y-102483497D01*
X124800500Y-102328842D01*
X124800500Y-102171158D01*
X124800500Y-102171155D01*
X124800499Y-102171153D01*
X124769738Y-102016510D01*
X124769738Y-102016508D01*
X124769737Y-102016503D01*
X124750577Y-101970247D01*
X124709397Y-101870827D01*
X124709395Y-101870823D01*
X124709394Y-101870821D01*
X124681346Y-101828844D01*
X124657657Y-101793391D01*
X124636779Y-101726714D01*
X124655263Y-101659334D01*
X124707242Y-101612643D01*
X124760759Y-101600500D01*
X125875500Y-101600500D01*
X125942539Y-101620185D01*
X125988294Y-101672989D01*
X125999500Y-101724500D01*
X125999500Y-108387769D01*
X125979815Y-108454808D01*
X125963181Y-108475450D01*
X124004142Y-110434489D01*
X123725451Y-110713181D01*
X123664128Y-110746666D01*
X123637770Y-110749500D01*
X74426080Y-110749500D01*
X74281092Y-110778340D01*
X74281086Y-110778342D01*
X74144508Y-110834914D01*
X74144496Y-110834921D01*
X74095269Y-110867813D01*
X74021588Y-110917044D01*
X74021580Y-110917050D01*
X72412923Y-112525707D01*
X72412917Y-112525715D01*
X72363685Y-112599395D01*
X72363686Y-112599396D01*
X72330794Y-112648623D01*
X72330787Y-112648635D01*
X72274215Y-112785213D01*
X72274213Y-112785219D01*
X72245373Y-112930206D01*
X72245373Y-116735396D01*
X72235935Y-116782844D01*
X72226136Y-116806503D01*
X72226135Y-116806506D01*
X72226133Y-116806511D01*
X72195373Y-116961153D01*
X72195373Y-117118846D01*
X72226134Y-117273489D01*
X72226137Y-117273501D01*
X72286475Y-117419172D01*
X72286482Y-117419185D01*
X72374083Y-117550288D01*
X72374086Y-117550292D01*
X72485580Y-117661786D01*
X72485584Y-117661789D01*
X72616687Y-117749390D01*
X72616700Y-117749397D01*
X72762371Y-117809735D01*
X72762376Y-117809737D01*
X72917026Y-117840499D01*
X72917029Y-117840500D01*
X72917031Y-117840500D01*
X73074717Y-117840500D01*
X73074718Y-117840499D01*
X73229370Y-117809737D01*
X73375052Y-117749394D01*
X73506162Y-117661789D01*
X73617662Y-117550289D01*
X73705267Y-117419179D01*
X73765610Y-117273497D01*
X73796373Y-117118842D01*
X73796373Y-116961158D01*
X73796373Y-116961155D01*
X73796372Y-116961153D01*
X73765612Y-116806511D01*
X73765611Y-116806508D01*
X73765610Y-116806503D01*
X73755810Y-116782844D01*
X73746373Y-116735396D01*
X73746373Y-113366357D01*
X73766058Y-113299318D01*
X73782692Y-113278676D01*
X74774549Y-112286819D01*
X74835872Y-112253334D01*
X74862230Y-112250500D01*
X88929240Y-112250500D01*
X88996279Y-112270185D01*
X89042034Y-112322989D01*
X89051978Y-112392147D01*
X89032343Y-112443390D01*
X89024913Y-112454508D01*
X88968343Y-112591082D01*
X88968340Y-112591092D01*
X88939500Y-112736079D01*
X88939500Y-116735396D01*
X88930062Y-116782844D01*
X88920263Y-116806503D01*
X88920262Y-116806506D01*
X88920260Y-116806511D01*
X88889500Y-116961153D01*
X88889500Y-117118846D01*
X88920261Y-117273489D01*
X88920264Y-117273501D01*
X88980602Y-117419172D01*
X88980609Y-117419185D01*
X89068210Y-117550288D01*
X89068213Y-117550292D01*
X89179707Y-117661786D01*
X89179711Y-117661789D01*
X89310814Y-117749390D01*
X89310827Y-117749397D01*
X89456498Y-117809735D01*
X89456503Y-117809737D01*
X89611153Y-117840499D01*
X89611156Y-117840500D01*
X89611158Y-117840500D01*
X89768844Y-117840500D01*
X89768845Y-117840499D01*
X89923497Y-117809737D01*
X90069179Y-117749394D01*
X90200289Y-117661789D01*
X90311789Y-117550289D01*
X90399394Y-117419179D01*
X90459737Y-117273497D01*
X90490500Y-117118842D01*
X90490500Y-116961158D01*
X90490500Y-116961155D01*
X90490499Y-116961153D01*
X90459739Y-116806511D01*
X90459738Y-116806508D01*
X90459737Y-116806503D01*
X90449937Y-116782844D01*
X90440500Y-116735396D01*
X90440500Y-113172230D01*
X90460185Y-113105191D01*
X90476819Y-113084549D01*
X91274549Y-112286819D01*
X91335872Y-112253334D01*
X91362230Y-112250500D01*
X99926082Y-112250500D01*
X105699086Y-112250500D01*
X105766125Y-112270185D01*
X105811880Y-112322989D01*
X105821824Y-112392147D01*
X105802188Y-112443389D01*
X105790233Y-112461281D01*
X105774914Y-112484208D01*
X105718343Y-112620783D01*
X105718340Y-112620793D01*
X105689500Y-112765780D01*
X105689500Y-116675396D01*
X105680062Y-116722844D01*
X105674864Y-116735396D01*
X105670262Y-116746506D01*
X105670260Y-116746511D01*
X105639500Y-116901153D01*
X105639500Y-117058846D01*
X105670261Y-117213489D01*
X105670264Y-117213501D01*
X105730602Y-117359172D01*
X105730609Y-117359185D01*
X105818210Y-117490288D01*
X105818213Y-117490292D01*
X105929707Y-117601786D01*
X105929711Y-117601789D01*
X106060814Y-117689390D01*
X106060827Y-117689397D01*
X106205665Y-117749390D01*
X106206503Y-117749737D01*
X106361153Y-117780499D01*
X106361156Y-117780500D01*
X106361158Y-117780500D01*
X106518844Y-117780500D01*
X106518845Y-117780499D01*
X106673497Y-117749737D01*
X106819179Y-117689394D01*
X106950289Y-117601789D01*
X107061789Y-117490289D01*
X107149394Y-117359179D01*
X107209737Y-117213497D01*
X107240500Y-117058842D01*
X107240500Y-116901158D01*
X107240500Y-116901155D01*
X107240499Y-116901153D01*
X107209739Y-116746511D01*
X107209738Y-116746508D01*
X107209737Y-116746503D01*
X107199937Y-116722844D01*
X107190500Y-116675396D01*
X107190500Y-113201930D01*
X107210185Y-113134891D01*
X107226819Y-113114249D01*
X108054249Y-112286819D01*
X108115572Y-112253334D01*
X108141930Y-112250500D01*
X112926082Y-112250500D01*
X122419298Y-112250500D01*
X122486337Y-112270185D01*
X122532092Y-112322989D01*
X122543298Y-112374500D01*
X122543298Y-116735396D01*
X122533860Y-116782844D01*
X122524061Y-116806503D01*
X122524060Y-116806506D01*
X122524058Y-116806511D01*
X122493298Y-116961153D01*
X122493298Y-117118846D01*
X122524059Y-117273489D01*
X122524062Y-117273501D01*
X122584400Y-117419172D01*
X122584407Y-117419185D01*
X122672008Y-117550288D01*
X122672011Y-117550292D01*
X122783505Y-117661786D01*
X122783509Y-117661789D01*
X122914612Y-117749390D01*
X122914625Y-117749397D01*
X123060296Y-117809735D01*
X123060301Y-117809737D01*
X123214951Y-117840499D01*
X123214954Y-117840500D01*
X123214956Y-117840500D01*
X123372642Y-117840500D01*
X123372643Y-117840499D01*
X123527295Y-117809737D01*
X123672977Y-117749394D01*
X123804087Y-117661789D01*
X123915587Y-117550289D01*
X124003192Y-117419179D01*
X124063535Y-117273497D01*
X124094298Y-117118842D01*
X124094298Y-116961158D01*
X124094298Y-116961155D01*
X124094297Y-116961153D01*
X124063537Y-116806511D01*
X124063536Y-116806508D01*
X124063535Y-116806503D01*
X124053735Y-116782844D01*
X124044298Y-116735396D01*
X124044298Y-112568431D01*
X124063983Y-112501392D01*
X124080617Y-112480750D01*
X124274548Y-112286819D01*
X124478414Y-112082953D01*
X124478416Y-112082952D01*
X125082952Y-111478416D01*
X125082952Y-111478415D01*
X127332952Y-109228415D01*
X127395847Y-109134285D01*
X127415084Y-109105495D01*
X127466510Y-108981342D01*
X127471659Y-108968912D01*
X127477580Y-108939143D01*
X127481159Y-108921153D01*
X131699500Y-108921153D01*
X131699500Y-109078846D01*
X131730261Y-109233489D01*
X131730264Y-109233501D01*
X131790602Y-109379172D01*
X131790609Y-109379185D01*
X131878210Y-109510288D01*
X131878213Y-109510292D01*
X131989707Y-109621786D01*
X131989711Y-109621789D01*
X132120814Y-109709390D01*
X132120827Y-109709397D01*
X132258683Y-109766498D01*
X132266503Y-109769737D01*
X132331147Y-109782595D01*
X132421849Y-109800638D01*
X132483760Y-109833023D01*
X132485336Y-109834571D01*
X133131284Y-110480520D01*
X133131286Y-110480521D01*
X133131290Y-110480524D01*
X133268209Y-110559573D01*
X133268216Y-110559577D01*
X133420943Y-110600501D01*
X133420945Y-110600501D01*
X133586654Y-110600501D01*
X133586670Y-110600500D01*
X135420234Y-110600500D01*
X135487273Y-110620185D01*
X135489125Y-110621398D01*
X135620814Y-110709390D01*
X135620827Y-110709397D01*
X135710804Y-110746666D01*
X135766503Y-110769737D01*
X135921153Y-110800499D01*
X135921156Y-110800500D01*
X135921158Y-110800500D01*
X136078844Y-110800500D01*
X136078845Y-110800499D01*
X136233497Y-110769737D01*
X136379179Y-110709394D01*
X136510289Y-110621789D01*
X136621789Y-110510289D01*
X136709394Y-110379179D01*
X136769737Y-110233497D01*
X136800500Y-110078842D01*
X136800500Y-109921158D01*
X136800500Y-109921155D01*
X136800499Y-109921153D01*
X136769738Y-109766510D01*
X136769737Y-109766503D01*
X136746080Y-109709390D01*
X136709397Y-109620827D01*
X136709390Y-109620814D01*
X136621789Y-109489711D01*
X136621786Y-109489707D01*
X136510292Y-109378213D01*
X136510288Y-109378210D01*
X136379185Y-109290609D01*
X136379172Y-109290602D01*
X136233501Y-109230264D01*
X136233489Y-109230261D01*
X136078845Y-109199500D01*
X136078842Y-109199500D01*
X135921158Y-109199500D01*
X135921155Y-109199500D01*
X135766510Y-109230261D01*
X135766498Y-109230264D01*
X135620827Y-109290602D01*
X135620814Y-109290609D01*
X135489125Y-109378602D01*
X135422447Y-109399480D01*
X135420234Y-109399500D01*
X133800098Y-109399500D01*
X133733059Y-109379815D01*
X133712417Y-109363181D01*
X133334573Y-108985337D01*
X133301088Y-108924014D01*
X133300637Y-108921847D01*
X133288120Y-108858921D01*
X133269737Y-108766503D01*
X133267246Y-108760488D01*
X133209397Y-108620827D01*
X133209390Y-108620814D01*
X133121789Y-108489711D01*
X133121786Y-108489707D01*
X133010292Y-108378213D01*
X133010288Y-108378210D01*
X132879185Y-108290609D01*
X132879172Y-108290602D01*
X132733501Y-108230264D01*
X132733489Y-108230261D01*
X132578845Y-108199500D01*
X132578842Y-108199500D01*
X132421158Y-108199500D01*
X132421155Y-108199500D01*
X132266510Y-108230261D01*
X132266498Y-108230264D01*
X132120827Y-108290602D01*
X132120814Y-108290609D01*
X131989711Y-108378210D01*
X131989707Y-108378213D01*
X131878213Y-108489707D01*
X131878210Y-108489711D01*
X131790609Y-108620814D01*
X131790602Y-108620827D01*
X131730264Y-108766498D01*
X131730261Y-108766510D01*
X131699500Y-108921153D01*
X127481159Y-108921153D01*
X127487182Y-108890875D01*
X127500499Y-108823921D01*
X127500500Y-108823918D01*
X127500500Y-102921153D01*
X132974500Y-102921153D01*
X132974500Y-103078846D01*
X133005261Y-103233489D01*
X133005264Y-103233501D01*
X133065602Y-103379172D01*
X133065609Y-103379185D01*
X133153602Y-103510874D01*
X133174480Y-103577551D01*
X133174500Y-103579765D01*
X133174500Y-105188330D01*
X133174499Y-105188348D01*
X133174499Y-105354054D01*
X133174498Y-105354054D01*
X133179250Y-105371789D01*
X133215423Y-105506785D01*
X133218457Y-105512040D01*
X133222899Y-105519735D01*
X133222901Y-105519737D01*
X133294477Y-105643712D01*
X133294481Y-105643717D01*
X133413349Y-105762585D01*
X133413355Y-105762590D01*
X140665425Y-113014660D01*
X140698910Y-113075983D01*
X140699361Y-113078149D01*
X140730261Y-113233491D01*
X140730264Y-113233501D01*
X140790602Y-113379172D01*
X140790609Y-113379185D01*
X140878210Y-113510288D01*
X140878213Y-113510292D01*
X140989707Y-113621786D01*
X140989711Y-113621789D01*
X141120814Y-113709390D01*
X141120827Y-113709397D01*
X141266498Y-113769735D01*
X141266503Y-113769737D01*
X141421153Y-113800499D01*
X141421156Y-113800500D01*
X141421158Y-113800500D01*
X141578844Y-113800500D01*
X141578845Y-113800499D01*
X141733497Y-113769737D01*
X141879179Y-113709394D01*
X142010289Y-113621789D01*
X142121789Y-113510289D01*
X142209394Y-113379179D01*
X142269737Y-113233497D01*
X142300500Y-113078842D01*
X142300500Y-112921158D01*
X142300500Y-112921155D01*
X142300499Y-112921153D01*
X142273459Y-112785214D01*
X142269737Y-112766503D01*
X142220910Y-112648623D01*
X142209397Y-112620827D01*
X142209390Y-112620814D01*
X142121789Y-112489711D01*
X142121786Y-112489707D01*
X142010292Y-112378213D01*
X142010288Y-112378210D01*
X141879185Y-112290609D01*
X141879172Y-112290602D01*
X141733501Y-112230264D01*
X141733491Y-112230261D01*
X141578151Y-112199362D01*
X141516241Y-112166977D01*
X141514662Y-112165426D01*
X139161417Y-109812181D01*
X139127932Y-109750858D01*
X139132916Y-109681166D01*
X139174788Y-109625233D01*
X139240252Y-109600816D01*
X139249098Y-109600500D01*
X140920234Y-109600500D01*
X140987273Y-109620185D01*
X140989125Y-109621398D01*
X141120814Y-109709390D01*
X141120827Y-109709397D01*
X141258683Y-109766498D01*
X141266503Y-109769737D01*
X141421153Y-109800499D01*
X141421156Y-109800500D01*
X141421158Y-109800500D01*
X141578844Y-109800500D01*
X141578845Y-109800499D01*
X141733497Y-109769737D01*
X141879179Y-109709394D01*
X142010289Y-109621789D01*
X142121789Y-109510289D01*
X142209394Y-109379179D01*
X142269737Y-109233497D01*
X142300500Y-109078842D01*
X142300500Y-108921158D01*
X142300500Y-108921155D01*
X142300499Y-108921153D01*
X142281158Y-108823921D01*
X142269737Y-108766503D01*
X142267246Y-108760488D01*
X142209397Y-108620827D01*
X142209390Y-108620814D01*
X142121789Y-108489711D01*
X142121786Y-108489707D01*
X142010292Y-108378213D01*
X142010288Y-108378210D01*
X141879185Y-108290609D01*
X141879172Y-108290602D01*
X141733501Y-108230264D01*
X141733489Y-108230261D01*
X141578845Y-108199500D01*
X141578842Y-108199500D01*
X141421158Y-108199500D01*
X141421155Y-108199500D01*
X141266510Y-108230261D01*
X141266498Y-108230264D01*
X141120827Y-108290602D01*
X141120814Y-108290609D01*
X140989125Y-108378602D01*
X140922447Y-108399480D01*
X140920234Y-108399500D01*
X139300097Y-108399500D01*
X139233058Y-108379815D01*
X139212416Y-108363181D01*
X135061819Y-104212584D01*
X135028334Y-104151261D01*
X135025500Y-104124903D01*
X135025500Y-102579765D01*
X135045185Y-102512726D01*
X135046398Y-102510874D01*
X135096043Y-102436576D01*
X135134394Y-102379179D01*
X135194737Y-102233497D01*
X135225500Y-102078842D01*
X135225500Y-101921158D01*
X135194737Y-101766503D01*
X135194735Y-101766498D01*
X135134397Y-101620827D01*
X135134390Y-101620814D01*
X135046789Y-101489711D01*
X135046786Y-101489707D01*
X134935292Y-101378213D01*
X134935288Y-101378210D01*
X134804185Y-101290609D01*
X134804172Y-101290602D01*
X134658501Y-101230264D01*
X134658489Y-101230261D01*
X134503845Y-101199500D01*
X134503842Y-101199500D01*
X134346158Y-101199500D01*
X134346155Y-101199500D01*
X134191510Y-101230261D01*
X134191498Y-101230264D01*
X134045827Y-101290602D01*
X134045814Y-101290609D01*
X133914711Y-101378210D01*
X133914707Y-101378213D01*
X133803213Y-101489707D01*
X133803210Y-101489711D01*
X133715609Y-101620814D01*
X133715602Y-101620827D01*
X133655264Y-101766498D01*
X133655261Y-101766510D01*
X133624500Y-101921153D01*
X133624500Y-102078842D01*
X133626257Y-102087676D01*
X133620028Y-102157268D01*
X133577164Y-102212444D01*
X133546917Y-102227418D01*
X133547130Y-102227932D01*
X133395827Y-102290602D01*
X133395814Y-102290609D01*
X133264711Y-102378210D01*
X133264707Y-102378213D01*
X133153213Y-102489707D01*
X133153210Y-102489711D01*
X133065609Y-102620814D01*
X133065602Y-102620827D01*
X133005264Y-102766498D01*
X133005261Y-102766510D01*
X132974500Y-102921153D01*
X127500500Y-102921153D01*
X127500500Y-101724500D01*
X127520185Y-101657461D01*
X127572989Y-101611706D01*
X127624500Y-101600500D01*
X128438331Y-101600500D01*
X128438347Y-101600501D01*
X128445943Y-101600501D01*
X128604054Y-101600501D01*
X128604057Y-101600501D01*
X128756785Y-101559577D01*
X128806904Y-101530639D01*
X128893716Y-101480520D01*
X129005520Y-101368716D01*
X129005520Y-101368714D01*
X129015728Y-101358507D01*
X129015729Y-101358504D01*
X131539664Y-98834571D01*
X131600985Y-98801088D01*
X131603152Y-98800637D01*
X131603841Y-98800500D01*
X131603842Y-98800500D01*
X131758497Y-98769737D01*
X131904179Y-98709394D01*
X132035289Y-98621789D01*
X132146789Y-98510289D01*
X132234394Y-98379179D01*
X132294737Y-98233497D01*
X132325500Y-98078842D01*
X132325500Y-97921158D01*
X132325500Y-97921155D01*
X132325499Y-97921153D01*
X132294738Y-97766510D01*
X132294737Y-97766503D01*
X132294732Y-97766492D01*
X132292969Y-97760676D01*
X132295720Y-97759841D01*
X132289497Y-97702641D01*
X132320691Y-97640122D01*
X132380734Y-97604392D01*
X132411555Y-97600500D01*
X133699903Y-97600500D01*
X133766942Y-97620185D01*
X133787584Y-97636819D01*
X135613181Y-99462416D01*
X135646666Y-99523739D01*
X135649500Y-99550097D01*
X135649500Y-101170234D01*
X135629815Y-101237273D01*
X135628602Y-101239125D01*
X135540609Y-101370814D01*
X135540602Y-101370827D01*
X135480264Y-101516498D01*
X135480261Y-101516510D01*
X135449500Y-101671153D01*
X135449500Y-101671158D01*
X135449500Y-101828842D01*
X135471825Y-101941077D01*
X135471828Y-101941098D01*
X135480261Y-101983489D01*
X135480264Y-101983501D01*
X135540602Y-102129172D01*
X135540609Y-102129185D01*
X135628210Y-102260288D01*
X135628213Y-102260292D01*
X135739707Y-102371786D01*
X135739711Y-102371789D01*
X135870814Y-102459390D01*
X135870827Y-102459397D01*
X136016498Y-102519735D01*
X136016503Y-102519737D01*
X136171153Y-102550499D01*
X136171156Y-102550500D01*
X136171158Y-102550500D01*
X136328844Y-102550500D01*
X136328845Y-102550499D01*
X136483497Y-102519737D01*
X136629179Y-102459394D01*
X136760289Y-102371789D01*
X136871789Y-102260289D01*
X136959394Y-102129179D01*
X137019737Y-101983497D01*
X137050500Y-101828842D01*
X137050500Y-101671158D01*
X137050500Y-101671155D01*
X137050499Y-101671153D01*
X137040361Y-101620185D01*
X137019737Y-101516503D01*
X137017163Y-101510289D01*
X136959397Y-101370827D01*
X136959390Y-101370814D01*
X136871398Y-101239125D01*
X136850520Y-101172447D01*
X136850500Y-101170234D01*
X136850500Y-99339060D01*
X136850501Y-99339047D01*
X136850501Y-99170944D01*
X136809576Y-99018214D01*
X136809573Y-99018209D01*
X136730524Y-98881290D01*
X136730518Y-98881282D01*
X134487590Y-96638355D01*
X134487588Y-96638352D01*
X134368717Y-96519481D01*
X134368716Y-96519480D01*
X134281904Y-96469360D01*
X134281904Y-96469359D01*
X134281900Y-96469358D01*
X134231785Y-96440423D01*
X134079057Y-96399499D01*
X133920943Y-96399499D01*
X133913347Y-96399499D01*
X133913331Y-96399500D01*
X128329057Y-96399500D01*
X128170943Y-96399500D01*
X128018215Y-96440423D01*
X128018214Y-96440423D01*
X128018212Y-96440424D01*
X128018209Y-96440425D01*
X127968096Y-96469359D01*
X127968095Y-96469360D01*
X127924689Y-96494420D01*
X127881285Y-96519479D01*
X127881282Y-96519481D01*
X127712181Y-96688583D01*
X127650858Y-96722068D01*
X127581166Y-96717084D01*
X127525233Y-96675212D01*
X127500816Y-96609748D01*
X127500500Y-96600902D01*
X127500500Y-95862229D01*
X127520185Y-95795190D01*
X127536819Y-95774548D01*
X129874548Y-93436819D01*
X129935871Y-93403334D01*
X129962229Y-93400500D01*
X132695396Y-93400500D01*
X132742844Y-93409937D01*
X132766503Y-93419737D01*
X132766508Y-93419738D01*
X132766511Y-93419739D01*
X132921153Y-93450499D01*
X132921156Y-93450500D01*
X132921158Y-93450500D01*
X133078844Y-93450500D01*
X133078845Y-93450499D01*
X133233497Y-93419737D01*
X133379179Y-93359394D01*
X133510289Y-93271789D01*
X133621789Y-93160289D01*
X133709394Y-93029179D01*
X133769737Y-92883497D01*
X133800500Y-92728842D01*
X133800500Y-92571158D01*
X133800500Y-92571155D01*
X133800499Y-92571153D01*
X133769739Y-92416511D01*
X133769738Y-92416508D01*
X133769737Y-92416503D01*
X133759937Y-92392844D01*
X133750500Y-92345396D01*
X133750500Y-86654604D01*
X133759939Y-86607151D01*
X133769737Y-86583497D01*
X133800500Y-86428842D01*
X133800500Y-86271158D01*
X133800500Y-86271155D01*
X133800499Y-86271153D01*
X133786067Y-86198599D01*
X133769737Y-86116503D01*
X133723816Y-86005638D01*
X133709397Y-85970827D01*
X133709390Y-85970814D01*
X133621789Y-85839711D01*
X133621786Y-85839707D01*
X133510292Y-85728213D01*
X133510288Y-85728210D01*
X133379185Y-85640609D01*
X133379172Y-85640602D01*
X133233501Y-85580264D01*
X133233489Y-85580261D01*
X133078845Y-85549500D01*
X133078842Y-85549500D01*
X132921158Y-85549500D01*
X132921155Y-85549500D01*
X132766511Y-85580260D01*
X132766506Y-85580262D01*
X132766504Y-85580262D01*
X132766503Y-85580263D01*
X132742844Y-85590062D01*
X132695396Y-85599500D01*
X63556626Y-85599500D01*
X63411638Y-85628340D01*
X63411632Y-85628342D01*
X63275054Y-85684914D01*
X63275042Y-85684921D01*
X63225815Y-85717813D01*
X63152134Y-85767044D01*
X63152126Y-85767050D01*
X62477047Y-86442130D01*
X62477043Y-86442135D01*
X62455570Y-86474274D01*
X62455570Y-86474275D01*
X62394913Y-86565054D01*
X62338343Y-86701628D01*
X62338340Y-86701638D01*
X62309500Y-86846625D01*
X62309500Y-86945396D01*
X62308049Y-86952687D01*
X62306408Y-86972916D01*
X62304079Y-86983147D01*
X62290263Y-87016503D01*
X62259500Y-87171158D01*
X59083939Y-87171158D01*
X59083939Y-78742500D01*
X59084547Y-78730238D01*
X59088335Y-78692117D01*
X59113850Y-78435363D01*
X59115826Y-78422445D01*
X59176408Y-78130551D01*
X59179732Y-78117923D01*
X59270747Y-77834025D01*
X59275377Y-77821837D01*
X59395803Y-77549118D01*
X59401693Y-77537482D01*
X59550189Y-77278979D01*
X59557296Y-77267996D01*
X59581027Y-77235244D01*
X59732187Y-77026615D01*
X59740413Y-77016439D01*
X59768968Y-76984698D01*
X59939784Y-76794820D01*
X59949019Y-76785585D01*
X60170639Y-76586212D01*
X60180816Y-76577987D01*
X60283548Y-76503553D01*
X60422199Y-76403094D01*
X60433178Y-76395990D01*
X60691681Y-76247494D01*
X60703317Y-76241604D01*
X60976036Y-76121178D01*
X60988224Y-76116548D01*
X61272122Y-76025533D01*
X61284750Y-76022209D01*
X61576644Y-75961627D01*
X61589562Y-75959651D01*
X61884439Y-75930348D01*
X61896701Y-75929740D01*
X141477776Y-75929740D01*
X141484733Y-75929935D01*
G37*
%TD.AperFunction*%
%TD*%
M02*
