%TF.GenerationSoftware,KiCad,Pcbnew,10.0.1*%
%TF.CreationDate,2026-06-18T23:37:02-04:00*%
%TF.ProjectId,business_card_v2,62757369-6e65-4737-935f-636172645f76,rev?*%
%TF.SameCoordinates,Original*%
%TF.FileFunction,Paste,Bot*%
%TF.FilePolarity,Positive*%
%FSLAX46Y46*%
G04 Gerber Fmt 4.6, Leading zero omitted, Abs format (unit mm)*
G04 Created by KiCad (PCBNEW 10.0.1) date 2026-06-18 23:37:02*
%MOMM*%
%LPD*%
G01*
G04 APERTURE LIST*
G04 Aperture macros list*
%AMRoundRect*
0 Rectangle with rounded corners*
0 $1 Rounding radius*
0 $2 $3 $4 $5 $6 $7 $8 $9 X,Y pos of 4 corners*
0 Add a 4 corners polygon primitive as box body*
4,1,4,$2,$3,$4,$5,$6,$7,$8,$9,$2,$3,0*
0 Add four circle primitives for the rounded corners*
1,1,$1+$1,$2,$3*
1,1,$1+$1,$4,$5*
1,1,$1+$1,$6,$7*
1,1,$1+$1,$8,$9*
0 Add four rect primitives between the rounded corners*
20,1,$1+$1,$2,$3,$4,$5,0*
20,1,$1+$1,$4,$5,$6,$7,0*
20,1,$1+$1,$6,$7,$8,$9,0*
20,1,$1+$1,$8,$9,$2,$3,0*%
G04 Aperture macros list end*
%ADD10RoundRect,0.100000X-0.637500X-0.100000X0.637500X-0.100000X0.637500X0.100000X-0.637500X0.100000X0*%
%ADD11RoundRect,0.200000X-0.200000X-0.275000X0.200000X-0.275000X0.200000X0.275000X-0.200000X0.275000X0*%
%ADD12RoundRect,0.200000X0.200000X0.275000X-0.200000X0.275000X-0.200000X-0.275000X0.200000X-0.275000X0*%
%ADD13RoundRect,0.225000X0.225000X0.250000X-0.225000X0.250000X-0.225000X-0.250000X0.225000X-0.250000X0*%
%ADD14RoundRect,0.225000X-0.225000X-0.250000X0.225000X-0.250000X0.225000X0.250000X-0.225000X0.250000X0*%
%ADD15RoundRect,0.250000X0.375000X0.625000X-0.375000X0.625000X-0.375000X-0.625000X0.375000X-0.625000X0*%
%ADD16RoundRect,0.250000X-0.375000X-0.625000X0.375000X-0.625000X0.375000X0.625000X-0.375000X0.625000X0*%
%ADD17RoundRect,0.200000X0.275000X-0.200000X0.275000X0.200000X-0.275000X0.200000X-0.275000X-0.200000X0*%
%ADD18RoundRect,0.200000X-0.275000X0.200000X-0.275000X-0.200000X0.275000X-0.200000X0.275000X0.200000X0*%
%ADD19RoundRect,0.100000X0.637500X0.100000X-0.637500X0.100000X-0.637500X-0.100000X0.637500X-0.100000X0*%
%ADD20RoundRect,0.375000X0.375000X-0.625000X0.375000X0.625000X-0.375000X0.625000X-0.375000X-0.625000X0*%
%ADD21RoundRect,0.500000X1.400000X-0.500000X1.400000X0.500000X-1.400000X0.500000X-1.400000X-0.500000X0*%
%ADD22RoundRect,0.250000X-0.625000X0.375000X-0.625000X-0.375000X0.625000X-0.375000X0.625000X0.375000X0*%
%ADD23RoundRect,0.225000X-0.250000X0.225000X-0.250000X-0.225000X0.250000X-0.225000X0.250000X0.225000X0*%
%ADD24RoundRect,0.225000X0.250000X-0.225000X0.250000X0.225000X-0.250000X0.225000X-0.250000X-0.225000X0*%
%ADD25RoundRect,0.100000X0.100000X-0.637500X0.100000X0.637500X-0.100000X0.637500X-0.100000X-0.637500X0*%
%ADD26R,1.700000X1.000000*%
G04 APERTURE END LIST*
D10*
%TO.C,U1*%
X115387500Y-93925000D03*
X115387500Y-93275000D03*
X115387500Y-92625000D03*
X115387500Y-91975000D03*
X115387500Y-91325000D03*
X115387500Y-90675000D03*
X115387500Y-90025000D03*
X115387500Y-89375000D03*
X115387500Y-88725000D03*
X115387500Y-88075000D03*
X121112500Y-88075000D03*
X121112500Y-88725000D03*
X121112500Y-89375000D03*
X121112500Y-90025000D03*
X121112500Y-90675000D03*
X121112500Y-91325000D03*
X121112500Y-91975000D03*
X121112500Y-92625000D03*
X121112500Y-93275000D03*
X121112500Y-93925000D03*
%TD*%
D11*
%TO.C,R13*%
X116175000Y-104500000D03*
X117825000Y-104500000D03*
%TD*%
D12*
%TO.C,R2*%
X132325000Y-77878496D03*
X130675000Y-77878496D03*
%TD*%
D13*
%TO.C,C3*%
X96560000Y-91635000D03*
X95010000Y-91635000D03*
%TD*%
D14*
%TO.C,C15*%
X129975000Y-98000000D03*
X131525000Y-98000000D03*
%TD*%
D13*
%TO.C,C11*%
X63060000Y-91635000D03*
X61510000Y-91635000D03*
%TD*%
D15*
%TO.C,D8*%
X69400000Y-109000000D03*
X66600000Y-109000000D03*
%TD*%
D10*
%TO.C,U3*%
X81887500Y-93925000D03*
X81887500Y-93275000D03*
X81887500Y-92625000D03*
X81887500Y-91975000D03*
X81887500Y-91325000D03*
X81887500Y-90675000D03*
X81887500Y-90025000D03*
X81887500Y-89375000D03*
X81887500Y-88725000D03*
X81887500Y-88075000D03*
X87612500Y-88075000D03*
X87612500Y-88725000D03*
X87612500Y-89375000D03*
X87612500Y-90025000D03*
X87612500Y-90675000D03*
X87612500Y-91325000D03*
X87612500Y-91975000D03*
X87612500Y-92625000D03*
X87612500Y-93275000D03*
X87612500Y-93925000D03*
%TD*%
D16*
%TO.C,D4*%
X66530867Y-96350858D03*
X69330867Y-96350858D03*
%TD*%
D10*
%TO.C,U2*%
X98637500Y-93925000D03*
X98637500Y-93275000D03*
X98637500Y-92625000D03*
X98637500Y-91975000D03*
X98637500Y-91325000D03*
X98637500Y-90675000D03*
X98637500Y-90025000D03*
X98637500Y-89375000D03*
X98637500Y-88725000D03*
X98637500Y-88075000D03*
X104362500Y-88075000D03*
X104362500Y-88725000D03*
X104362500Y-89375000D03*
X104362500Y-90025000D03*
X104362500Y-90675000D03*
X104362500Y-91325000D03*
X104362500Y-91975000D03*
X104362500Y-92625000D03*
X104362500Y-93275000D03*
X104362500Y-93925000D03*
%TD*%
D16*
%TO.C,D2*%
X100100000Y-96500000D03*
X102900000Y-96500000D03*
%TD*%
D17*
%TO.C,R7*%
X114826467Y-110282221D03*
X114826467Y-108632221D03*
%TD*%
D14*
%TO.C,C20*%
X72995873Y-113865000D03*
X74545873Y-113865000D03*
%TD*%
%TO.C,C12*%
X61510000Y-88460000D03*
X63060000Y-88460000D03*
%TD*%
D13*
%TO.C,C5*%
X79810000Y-91635000D03*
X78260000Y-91635000D03*
%TD*%
D18*
%TO.C,R5*%
X88105257Y-95280257D03*
X88105257Y-96930257D03*
%TD*%
D17*
%TO.C,R9*%
X81378251Y-110184656D03*
X81378251Y-108534656D03*
%TD*%
%TO.C,R10*%
X64663734Y-110137875D03*
X64663734Y-108487875D03*
%TD*%
D11*
%TO.C,R11*%
X136675000Y-102500000D03*
X138325000Y-102500000D03*
%TD*%
D15*
%TO.C,D7*%
X86122106Y-108987992D03*
X83322106Y-108987992D03*
%TD*%
D14*
%TO.C,C16*%
X106440000Y-113865000D03*
X107990000Y-113865000D03*
%TD*%
D19*
%TO.C,U7*%
X87612500Y-111575000D03*
X87612500Y-112225000D03*
X87612500Y-112875000D03*
X87612500Y-113525000D03*
X87612500Y-114175000D03*
X87612500Y-114825000D03*
X87612500Y-115475000D03*
X87612500Y-116125000D03*
X87612500Y-116775000D03*
X87612500Y-117425000D03*
X81887500Y-117425000D03*
X81887500Y-116775000D03*
X81887500Y-116125000D03*
X81887500Y-115475000D03*
X81887500Y-114825000D03*
X81887500Y-114175000D03*
X81887500Y-113525000D03*
X81887500Y-112875000D03*
X81887500Y-112225000D03*
X81887500Y-111575000D03*
%TD*%
D13*
%TO.C,C1*%
X113310000Y-91635000D03*
X111760000Y-91635000D03*
%TD*%
D19*
%TO.C,U8*%
X70862500Y-111575000D03*
X70862500Y-112225000D03*
X70862500Y-112875000D03*
X70862500Y-113525000D03*
X70862500Y-114175000D03*
X70862500Y-114825000D03*
X70862500Y-115475000D03*
X70862500Y-116125000D03*
X70862500Y-116775000D03*
X70862500Y-117425000D03*
X65137500Y-117425000D03*
X65137500Y-116775000D03*
X65137500Y-116125000D03*
X65137500Y-115475000D03*
X65137500Y-114825000D03*
X65137500Y-114175000D03*
X65137500Y-113525000D03*
X65137500Y-112875000D03*
X65137500Y-112225000D03*
X65137500Y-111575000D03*
%TD*%
D20*
%TO.C,P1*%
X135300000Y-92650000D03*
X133000000Y-92650000D03*
D21*
X133000000Y-86350000D03*
D20*
X130700000Y-92650000D03*
%TD*%
D16*
%TO.C,D1*%
X116850000Y-96500000D03*
X119650000Y-96500000D03*
%TD*%
D22*
%TO.C,D9*%
X137750000Y-97850000D03*
X137750000Y-100650000D03*
%TD*%
D18*
%TO.C,R3*%
X121619252Y-95252968D03*
X121619252Y-96902968D03*
%TD*%
D23*
%TO.C,C10*%
X132000000Y-94750000D03*
X132000000Y-96300000D03*
%TD*%
D10*
%TO.C,U4*%
X65137500Y-93925000D03*
X65137500Y-93275000D03*
X65137500Y-92625000D03*
X65137500Y-91975000D03*
X65137500Y-91325000D03*
X65137500Y-90675000D03*
X65137500Y-90025000D03*
X65137500Y-89375000D03*
X65137500Y-88725000D03*
X65137500Y-88075000D03*
X70862500Y-88075000D03*
X70862500Y-88725000D03*
X70862500Y-89375000D03*
X70862500Y-90025000D03*
X70862500Y-90675000D03*
X70862500Y-91325000D03*
X70862500Y-91975000D03*
X70862500Y-92625000D03*
X70862500Y-93275000D03*
X70862500Y-93925000D03*
%TD*%
D14*
%TO.C,C6*%
X78260000Y-88460000D03*
X79810000Y-88460000D03*
%TD*%
D24*
%TO.C,C8*%
X127000000Y-91275000D03*
X127000000Y-89725000D03*
%TD*%
D25*
%TO.C,M1*%
X134425000Y-105612500D03*
X133775000Y-105612500D03*
X133125000Y-105612500D03*
X132475000Y-105612500D03*
X131825000Y-105612500D03*
X131175000Y-105612500D03*
X130525000Y-105612500D03*
X129875000Y-105612500D03*
X129225000Y-105612500D03*
X128575000Y-105612500D03*
X128575000Y-99887500D03*
X129225000Y-99887500D03*
X129875000Y-99887500D03*
X130525000Y-99887500D03*
X131175000Y-99887500D03*
X131825000Y-99887500D03*
X132475000Y-99887500D03*
X133125000Y-99887500D03*
X133775000Y-99887500D03*
X134425000Y-99887500D03*
%TD*%
D18*
%TO.C,R4*%
X104871585Y-95221781D03*
X104871585Y-96871781D03*
%TD*%
D13*
%TO.C,C17*%
X107990000Y-116980000D03*
X106440000Y-116980000D03*
%TD*%
%TO.C,C21*%
X74545873Y-117040000D03*
X72995873Y-117040000D03*
%TD*%
D14*
%TO.C,C18*%
X89690000Y-113865000D03*
X91240000Y-113865000D03*
%TD*%
%TO.C,C2*%
X111760000Y-88460000D03*
X113310000Y-88460000D03*
%TD*%
D26*
%TO.C,SW3*%
X134350000Y-81650000D03*
X140650000Y-81650000D03*
X134350000Y-77850000D03*
X140650000Y-77850000D03*
%TD*%
D15*
%TO.C,D6*%
X102900000Y-108997206D03*
X100100000Y-108997206D03*
%TD*%
D14*
%TO.C,C4*%
X95010000Y-88460000D03*
X96560000Y-88460000D03*
%TD*%
%TO.C,C26*%
X132475000Y-107750000D03*
X134025000Y-107750000D03*
%TD*%
D15*
%TO.C,D5*%
X119400000Y-109000000D03*
X116600000Y-109000000D03*
%TD*%
D16*
%TO.C,D3*%
X83372097Y-96350858D03*
X86172097Y-96350858D03*
%TD*%
D19*
%TO.C,U6*%
X104362500Y-111575000D03*
X104362500Y-112225000D03*
X104362500Y-112875000D03*
X104362500Y-113525000D03*
X104362500Y-114175000D03*
X104362500Y-114825000D03*
X104362500Y-115475000D03*
X104362500Y-116125000D03*
X104362500Y-116775000D03*
X104362500Y-117425000D03*
X98637500Y-117425000D03*
X98637500Y-116775000D03*
X98637500Y-116125000D03*
X98637500Y-115475000D03*
X98637500Y-114825000D03*
X98637500Y-114175000D03*
X98637500Y-113525000D03*
X98637500Y-112875000D03*
X98637500Y-112225000D03*
X98637500Y-111575000D03*
%TD*%
D11*
%TO.C,R12*%
X116175000Y-101000000D03*
X117825000Y-101000000D03*
%TD*%
D17*
%TO.C,R8*%
X98195090Y-110210632D03*
X98195090Y-108560632D03*
%TD*%
D14*
%TO.C,C13*%
X123293798Y-113865000D03*
X124843798Y-113865000D03*
%TD*%
D24*
%TO.C,C7*%
X128500000Y-91275000D03*
X128500000Y-89725000D03*
%TD*%
D13*
%TO.C,C19*%
X91240000Y-117040000D03*
X89690000Y-117040000D03*
%TD*%
D19*
%TO.C,U5*%
X121112500Y-111575000D03*
X121112500Y-112225000D03*
X121112500Y-112875000D03*
X121112500Y-113525000D03*
X121112500Y-114175000D03*
X121112500Y-114825000D03*
X121112500Y-115475000D03*
X121112500Y-116125000D03*
X121112500Y-116775000D03*
X121112500Y-117425000D03*
X115387500Y-117425000D03*
X115387500Y-116775000D03*
X115387500Y-116125000D03*
X115387500Y-115475000D03*
X115387500Y-114825000D03*
X115387500Y-114175000D03*
X115387500Y-113525000D03*
X115387500Y-112875000D03*
X115387500Y-112225000D03*
X115387500Y-111575000D03*
%TD*%
D13*
%TO.C,C14*%
X124843798Y-117040000D03*
X123293798Y-117040000D03*
%TD*%
D23*
%TO.C,C9*%
X133500000Y-94750000D03*
X133500000Y-96300000D03*
%TD*%
D18*
%TO.C,R6*%
X71369285Y-95245171D03*
X71369285Y-96895171D03*
%TD*%
M02*
